<svg width="542" height="542" viewBox="0 0 542 542" fill="none" xmlns="http://www.w3.org/2000/svg">
<g clip-path="url(#clip0_584_148)">
<path d="M153.401 251.541C209.508 251.541 254.991 205.744 254.991 149.251C254.991 92.7578 209.508 46.9609 153.401 46.9609C97.2949 46.9609 51.8115 92.7578 51.8115 149.251C51.8115 205.744 97.2949 251.541 153.401 251.541Z" stroke="#A4A189" stroke-miterlimit="10"/>
<path d="M150.231 253.388C208.651 253.388 256.01 205.703 256.01 146.88C256.01 88.0566 208.651 40.3711 150.231 40.3711C91.8103 40.3711 44.4512 88.0566 44.4512 146.88C44.4512 205.703 91.8103 253.388 150.231 253.388Z" stroke="#A4A189" stroke-miterlimit="10"/>
<path d="M147.055 255.235C207.789 255.235 257.024 205.661 257.024 144.508C257.024 83.3554 207.789 33.7812 147.055 33.7812C86.3208 33.7812 37.0859 83.3554 37.0859 144.508C37.0859 205.661 86.3208 255.235 147.055 255.235Z" stroke="#A4A189" stroke-miterlimit="10"/>
<path d="M143.884 257.082C206.932 257.082 258.043 205.619 258.043 142.137C258.043 78.6542 206.932 27.1914 143.884 27.1914C80.8361 27.1914 29.7256 78.6542 29.7256 142.137C29.7256 205.619 80.8361 257.082 143.884 257.082Z" stroke="#A4A189" stroke-miterlimit="10"/>
<path d="M140.709 258.925C206.07 258.925 259.057 205.574 259.057 139.761C259.057 73.9491 206.07 20.5977 140.709 20.5977C75.3466 20.5977 22.3604 73.9491 22.3604 139.761C22.3604 205.574 75.3466 258.925 140.709 258.925Z" stroke="#A4A189" stroke-miterlimit="10"/>
<path d="M137.533 260.772C205.209 260.772 260.071 205.532 260.071 137.39C260.071 69.2479 205.209 14.0078 137.533 14.0078C69.8571 14.0078 14.9951 69.2479 14.9951 137.39C14.9951 205.532 69.8571 260.772 137.533 260.772Z" stroke="#A4A189" stroke-miterlimit="10"/>
<path d="M134.362 262.619C204.352 262.619 261.089 205.49 261.089 135.019C261.089 64.5467 204.352 7.41797 134.362 7.41797C64.3725 7.41797 7.63477 64.5467 7.63477 135.019C7.63477 205.49 64.3725 262.619 134.362 262.619Z" stroke="#A4A189" stroke-miterlimit="10"/>
<path d="M131.186 264.458C203.49 264.458 262.103 205.441 262.103 132.639C262.103 59.8377 203.49 0.820312 131.186 0.820312C58.883 0.820312 0.269531 59.8377 0.269531 132.639C0.269531 205.441 58.883 264.458 131.186 264.458Z" stroke="#A4A189" stroke-miterlimit="10"/>
<path d="M385.013 251.541C441.119 251.541 486.603 205.744 486.603 149.251C486.603 92.7578 441.119 46.9609 385.013 46.9609C328.906 46.9609 283.423 92.7578 283.423 149.251C283.423 205.744 328.906 251.541 385.013 251.541Z" stroke="#A4A189" stroke-miterlimit="10"/>
<path d="M388.183 253.388C446.604 253.388 493.963 205.703 493.963 146.88C493.963 88.0566 446.604 40.3711 388.183 40.3711C329.763 40.3711 282.404 88.0566 282.404 146.88C282.404 205.703 329.763 253.388 388.183 253.388Z" stroke="#A4A189" stroke-miterlimit="10"/>
<path d="M391.359 255.235C452.093 255.235 501.328 205.661 501.328 144.508C501.328 83.3554 452.093 33.7812 391.359 33.7812C330.625 33.7812 281.39 83.3554 281.39 144.508C281.39 205.661 330.625 255.235 391.359 255.235Z" stroke="#A4A189" stroke-miterlimit="10"/>
<path d="M394.535 257.082C457.583 257.082 508.694 205.619 508.694 142.137C508.694 78.6542 457.583 27.1914 394.535 27.1914C331.487 27.1914 280.376 78.6542 280.376 142.137C280.376 205.619 331.487 257.082 394.535 257.082Z" stroke="#A4A189" stroke-miterlimit="10"/>
<path d="M397.706 258.925C463.067 258.925 516.054 205.574 516.054 139.761C516.054 73.9491 463.067 20.5977 397.706 20.5977C332.344 20.5977 279.357 73.9491 279.357 139.761C279.357 205.574 332.344 258.925 397.706 258.925Z" stroke="#A4A189" stroke-miterlimit="10"/>
<path d="M400.881 260.772C468.557 260.772 523.419 205.532 523.419 137.39C523.419 69.2479 468.557 14.0078 400.881 14.0078C333.206 14.0078 278.344 69.2479 278.344 137.39C278.344 205.532 333.206 260.772 400.881 260.772Z" stroke="#A4A189" stroke-miterlimit="10"/>
<path d="M404.052 262.619C474.041 262.619 530.779 205.49 530.779 135.019C530.779 64.5467 474.041 7.41797 404.052 7.41797C334.062 7.41797 277.325 64.5467 277.325 135.019C277.325 205.49 334.062 262.619 404.052 262.619Z" stroke="#A4A189" stroke-miterlimit="10"/>
<path d="M407.228 264.458C479.531 264.458 538.145 205.441 538.145 132.639C538.145 59.8377 479.531 0.820312 407.228 0.820312C334.924 0.820312 276.311 59.8377 276.311 132.639C276.311 205.441 334.924 264.458 407.228 264.458Z" stroke="#A4A189" stroke-miterlimit="10"/>
<path d="M153.401 495.588C209.508 495.588 254.991 449.791 254.991 393.298C254.991 336.805 209.508 291.008 153.401 291.008C97.2949 291.008 51.8115 336.805 51.8115 393.298C51.8115 449.791 97.2949 495.588 153.401 495.588Z" stroke="#A4A189" stroke-miterlimit="10"/>
<path d="M150.231 502.177C208.651 502.177 256.01 454.492 256.01 395.669C256.01 336.846 208.651 289.16 150.231 289.16C91.8103 289.16 44.4512 336.846 44.4512 395.669C44.4512 454.492 91.8103 502.177 150.231 502.177Z" stroke="#A4A189" stroke-miterlimit="10"/>
<path d="M147.055 508.77C207.789 508.77 257.024 459.196 257.024 398.043C257.024 336.891 207.789 287.316 147.055 287.316C86.3208 287.316 37.0859 336.891 37.0859 398.043C37.0859 459.196 86.3208 508.77 147.055 508.77Z" stroke="#A4A189" stroke-miterlimit="10"/>
<path d="M143.884 515.359C206.932 515.359 258.043 463.897 258.043 400.414C258.043 336.932 206.932 285.469 143.884 285.469C80.8361 285.469 29.7256 336.932 29.7256 400.414C29.7256 463.897 80.8361 515.359 143.884 515.359Z" stroke="#A4A189" stroke-miterlimit="10"/>
<path d="M140.709 521.953C206.07 521.953 259.057 468.601 259.057 402.789C259.057 336.976 206.07 283.625 140.709 283.625C75.3466 283.625 22.3604 336.976 22.3604 402.789C22.3604 468.601 75.3466 521.953 140.709 521.953Z" stroke="#A4A189" stroke-miterlimit="10"/>
<path d="M137.533 528.542C205.209 528.542 260.071 473.302 260.071 405.16C260.071 337.017 205.209 281.777 137.533 281.777C69.8571 281.777 14.9951 337.017 14.9951 405.16C14.9951 473.302 69.8571 528.542 137.533 528.542Z" stroke="#A4A189" stroke-miterlimit="10"/>
<path d="M134.362 535.131C204.352 535.131 261.089 478.002 261.089 407.53C261.089 337.058 204.352 279.93 134.362 279.93C64.3725 279.93 7.63477 337.058 7.63477 407.53C7.63477 478.002 64.3725 535.131 134.362 535.131Z" stroke="#A4A189" stroke-miterlimit="10"/>
<path d="M131.186 541.728C203.49 541.728 262.103 482.711 262.103 409.909C262.103 337.107 203.49 278.09 131.186 278.09C58.883 278.09 0.269531 337.107 0.269531 409.909C0.269531 482.711 58.883 541.728 131.186 541.728Z" stroke="#A4A189" stroke-miterlimit="10"/>
<path d="M385.013 495.588C441.119 495.588 486.603 449.791 486.603 393.298C486.603 336.805 441.119 291.008 385.013 291.008C328.906 291.008 283.423 336.805 283.423 393.298C283.423 449.791 328.906 495.588 385.013 495.588Z" stroke="#A4A189" stroke-miterlimit="10"/>
<path d="M388.183 502.177C446.604 502.177 493.963 454.492 493.963 395.669C493.963 336.846 446.604 289.16 388.183 289.16C329.763 289.16 282.404 336.846 282.404 395.669C282.404 454.492 329.763 502.177 388.183 502.177Z" stroke="#A4A189" stroke-miterlimit="10"/>
<path d="M391.359 508.77C452.093 508.77 501.328 459.196 501.328 398.043C501.328 336.891 452.093 287.316 391.359 287.316C330.625 287.316 281.39 336.891 281.39 398.043C281.39 459.196 330.625 508.77 391.359 508.77Z" stroke="#A4A189" stroke-miterlimit="10"/>
<path d="M394.535 515.359C457.583 515.359 508.694 463.897 508.694 400.414C508.694 336.932 457.583 285.469 394.535 285.469C331.487 285.469 280.376 336.932 280.376 400.414C280.376 463.897 331.487 515.359 394.535 515.359Z" stroke="#A4A189" stroke-miterlimit="10"/>
<path d="M397.706 521.953C463.067 521.953 516.054 468.601 516.054 402.789C516.054 336.976 463.067 283.625 397.706 283.625C332.344 283.625 279.357 336.976 279.357 402.789C279.357 468.601 332.344 521.953 397.706 521.953Z" stroke="#A4A189" stroke-miterlimit="10"/>
<path d="M400.881 528.542C468.557 528.542 523.419 473.302 523.419 405.16C523.419 337.017 468.557 281.777 400.881 281.777C333.206 281.777 278.344 337.017 278.344 405.16C278.344 473.302 333.206 528.542 400.881 528.542Z" stroke="#A4A189" stroke-miterlimit="10"/>
<path d="M404.052 535.131C474.041 535.131 530.779 478.002 530.779 407.53C530.779 337.058 474.041 279.93 404.052 279.93C334.062 279.93 277.325 337.058 277.325 407.53C277.325 478.002 334.062 535.131 404.052 535.131Z" stroke="#A4A189" stroke-miterlimit="10"/>
<path d="M407.228 541.728C479.531 541.728 538.145 482.711 538.145 409.909C538.145 337.107 479.531 278.09 407.228 278.09C334.924 278.09 276.311 337.107 276.311 409.909C276.311 482.711 334.924 541.728 407.228 541.728Z" stroke="#A4A189" stroke-miterlimit="10"/>
<path d="M270.073 206.994C280.99 206.994 289.84 198.083 289.84 187.091C289.84 176.098 280.99 167.188 270.073 167.188C259.156 167.188 250.306 176.098 250.306 187.091C250.306 198.083 259.156 206.994 270.073 206.994Z" stroke="#A4A189" stroke-miterlimit="10"/>
<path d="M270.229 207.08C283.713 207.08 294.644 196.074 294.644 182.497C294.644 168.92 283.713 157.914 270.229 157.914C256.745 157.914 245.814 168.92 245.814 182.497C245.814 196.074 256.745 207.08 270.229 207.08Z" stroke="#A4A189" stroke-miterlimit="10"/>
<path d="M270.385 207.164C286.433 207.164 299.443 194.064 299.443 177.906C299.443 161.747 286.433 148.648 270.385 148.648C254.338 148.648 241.328 161.747 241.328 177.906C241.328 194.064 254.338 207.164 270.385 207.164Z" stroke="#A4A189" stroke-miterlimit="10"/>
<path d="M270.537 207.25C289.152 207.25 304.242 192.056 304.242 173.312C304.242 154.569 289.152 139.375 270.537 139.375C251.922 139.375 236.832 154.569 236.832 173.312C236.832 192.056 251.922 207.25 270.537 207.25Z" stroke="#A4A189" stroke-miterlimit="10"/>
<path d="M270.693 207.332C291.875 207.332 309.046 190.043 309.046 168.715C309.046 147.387 291.875 130.098 270.693 130.098C249.511 130.098 232.34 147.387 232.34 168.715C232.34 190.043 249.511 207.332 270.693 207.332Z" stroke="#A4A189" stroke-miterlimit="10"/>
<path d="M270.849 207.419C294.598 207.419 313.85 188.034 313.85 164.121C313.85 140.209 294.598 120.824 270.849 120.824C247.1 120.824 227.848 140.209 227.848 164.121C227.848 188.034 247.1 207.419 270.849 207.419Z" stroke="#A4A189" stroke-miterlimit="10"/>
<path d="M271 207.505C297.316 207.505 318.649 186.025 318.649 159.528C318.649 133.031 297.316 111.551 271 111.551C244.685 111.551 223.352 133.031 223.352 159.528C223.352 186.025 244.685 207.505 271 207.505Z" stroke="#A4A189" stroke-miterlimit="10"/>
<path d="M271.157 207.591C300.039 207.591 323.453 184.016 323.453 154.934C323.453 125.853 300.039 102.277 271.157 102.277C242.274 102.277 218.86 125.853 218.86 154.934C218.86 184.016 242.274 207.591 271.157 207.591Z" stroke="#A4A189" stroke-miterlimit="10"/>
<path d="M271.313 207.678C302.763 207.678 328.258 182.007 328.258 150.341C328.258 118.675 302.763 93.0039 271.313 93.0039C239.864 93.0039 214.369 118.675 214.369 150.341C214.369 182.007 239.864 207.678 271.313 207.678Z" stroke="#A4A189" stroke-miterlimit="10"/>
<path d="M271.464 207.764C305.48 207.764 333.056 179.998 333.056 145.747C333.056 111.496 305.48 83.7305 271.464 83.7305C237.447 83.7305 209.872 111.496 209.872 145.747C209.872 179.998 237.447 207.764 271.464 207.764Z" stroke="#A4A189" stroke-miterlimit="10"/>
<path d="M271.62 207.847C308.204 207.847 337.86 177.985 337.86 141.15C337.86 104.314 308.204 74.4531 271.62 74.4531C235.037 74.4531 205.38 104.314 205.38 141.15C205.38 177.985 235.037 207.847 271.62 207.847Z" stroke="#A4A189" stroke-miterlimit="10"/>
<path d="M271.777 207.933C310.927 207.933 342.665 175.977 342.665 136.556C342.665 97.1361 310.927 65.1797 271.777 65.1797C232.626 65.1797 200.889 97.1361 200.889 136.556C200.889 175.977 232.626 207.933 271.777 207.933Z" stroke="#A4A189" stroke-miterlimit="10"/>
<path d="M271.928 208.016C313.642 208.016 347.458 173.967 347.458 131.965C347.458 89.9633 313.642 55.9141 271.928 55.9141C230.213 55.9141 196.397 89.9633 196.397 131.965C196.397 173.967 230.213 208.016 271.928 208.016Z" stroke="#A4A189" stroke-miterlimit="10"/>
<path d="M272.084 208.103C316.365 208.103 352.262 171.958 352.262 127.372C352.262 82.7851 316.365 46.6406 272.084 46.6406C227.802 46.6406 191.905 82.7851 191.905 127.372C191.905 171.958 227.802 208.103 272.084 208.103Z" stroke="#A4A189" stroke-miterlimit="10"/>
<path d="M272.24 208.189C319.089 208.189 357.067 169.949 357.067 122.778C357.067 75.607 319.089 37.3672 272.24 37.3672C225.392 37.3672 187.414 75.607 187.414 122.778C187.414 169.949 225.392 208.189 272.24 208.189Z" stroke="#A4A189" stroke-miterlimit="10"/>
<path d="M272.391 208.275C321.806 208.275 361.865 167.94 361.865 118.185C361.865 68.4288 321.806 28.0938 272.391 28.0938C222.976 28.0938 182.917 68.4288 182.917 118.185C182.917 167.94 222.976 208.275 272.391 208.275Z" stroke="#A4A189" stroke-miterlimit="10"/>
<path d="M272.548 208.362C324.53 208.362 366.67 165.931 366.67 113.591C366.67 61.2506 324.53 18.8203 272.548 18.8203C220.566 18.8203 178.426 61.2506 178.426 113.591C178.426 165.931 220.566 208.362 272.548 208.362Z" stroke="#A4A189" stroke-miterlimit="10"/>
<path d="M272.704 208.444C327.253 208.444 371.474 163.919 371.474 108.994C371.474 54.0685 327.253 9.54297 272.704 9.54297C218.155 9.54297 173.934 54.0685 173.934 108.994C173.934 163.919 218.155 208.444 272.704 208.444Z" stroke="#A4A189" stroke-miterlimit="10"/>
<path d="M272.855 208.531C329.971 208.531 376.273 161.91 376.273 104.4C376.273 46.8904 329.971 0.269531 272.855 0.269531C215.739 0.269531 169.437 46.8904 169.437 104.4C169.437 161.91 215.739 208.531 272.855 208.531Z" stroke="#A4A189" stroke-miterlimit="10"/>
<path d="M269.436 374.834C280.353 374.834 289.203 365.923 289.203 354.931C289.203 343.938 280.353 335.027 269.436 335.027C258.519 335.027 249.669 343.938 249.669 354.931C249.669 365.923 258.519 374.834 269.436 374.834Z" stroke="#A4A189" stroke-miterlimit="10"/>
<path d="M269.625 384.104C283.109 384.104 294.04 373.097 294.04 359.521C294.04 345.944 283.109 334.938 269.625 334.938C256.141 334.938 245.21 345.944 245.21 359.521C245.21 373.097 256.141 384.104 269.625 384.104Z" stroke="#A4A189" stroke-miterlimit="10"/>
<path d="M269.814 393.371C285.862 393.371 298.871 380.271 298.871 364.113C298.871 347.954 285.862 334.855 269.814 334.855C253.766 334.855 240.757 347.954 240.757 364.113C240.757 380.271 253.766 393.371 269.814 393.371Z" stroke="#A4A189" stroke-miterlimit="10"/>
<path d="M270.008 402.644C288.623 402.644 303.713 387.45 303.713 368.707C303.713 349.964 288.623 334.77 270.008 334.77C251.393 334.77 236.303 349.964 236.303 368.707C236.303 387.45 251.393 402.644 270.008 402.644Z" stroke="#A4A189" stroke-miterlimit="10"/>
<path d="M270.197 411.918C291.379 411.918 308.55 394.629 308.55 373.301C308.55 351.973 291.379 334.684 270.197 334.684C249.015 334.684 231.844 351.973 231.844 373.301C231.844 394.629 249.015 411.918 270.197 411.918Z" stroke="#A4A189" stroke-miterlimit="10"/>
<path d="M270.386 421.188C294.134 421.188 313.387 401.803 313.387 377.891C313.387 353.979 294.134 334.594 270.386 334.594C246.637 334.594 227.385 353.979 227.385 377.891C227.385 401.803 246.637 421.188 270.386 421.188Z" stroke="#A4A189" stroke-miterlimit="10"/>
<path d="M270.574 430.462C296.89 430.462 318.223 408.982 318.223 382.485C318.223 355.988 296.89 334.508 270.574 334.508C244.258 334.508 222.925 355.988 222.925 382.485C222.925 408.982 244.258 430.462 270.574 430.462Z" stroke="#A4A189" stroke-miterlimit="10"/>
<path d="M270.768 439.736C299.651 439.736 323.065 416.161 323.065 387.079C323.065 357.997 299.651 334.422 270.768 334.422C241.886 334.422 218.472 357.997 218.472 387.079C218.472 416.161 241.886 439.736 270.768 439.736Z" stroke="#A4A189" stroke-miterlimit="10"/>
<path d="M270.957 449.01C302.407 449.01 327.902 423.339 327.902 391.673C327.902 360.007 302.407 334.336 270.957 334.336C239.508 334.336 214.013 360.007 214.013 391.673C214.013 423.339 239.508 449.01 270.957 449.01Z" stroke="#A4A189" stroke-miterlimit="10"/>
<path d="M271.146 458.28C305.162 458.28 332.738 430.514 332.738 396.263C332.738 362.012 305.162 334.246 271.146 334.246C237.129 334.246 209.553 362.012 209.553 396.263C209.553 430.514 237.129 458.28 271.146 458.28Z" stroke="#A4A189" stroke-miterlimit="10"/>
<path d="M271.334 467.554C307.918 467.554 337.575 437.692 337.575 400.857C337.575 364.021 307.918 334.16 271.334 334.16C234.751 334.16 205.094 364.021 205.094 400.857C205.094 437.692 234.751 467.554 271.334 467.554Z" stroke="#A4A189" stroke-miterlimit="10"/>
<path d="M271.529 476.828C310.679 476.828 342.417 444.871 342.417 405.451C342.417 366.031 310.679 334.074 271.529 334.074C232.378 334.074 200.641 366.031 200.641 405.451C200.641 444.871 232.378 476.828 271.529 476.828Z" stroke="#A4A189" stroke-miterlimit="10"/>
<path d="M271.717 486.091C313.432 486.091 347.248 452.041 347.248 410.039C347.248 368.038 313.432 333.988 271.717 333.988C230.003 333.988 196.187 368.038 196.187 410.039C196.187 452.041 230.003 486.091 271.717 486.091Z" stroke="#A4A189" stroke-miterlimit="10"/>
<path d="M271.906 495.36C316.187 495.36 352.084 459.216 352.084 414.629C352.084 370.043 316.187 333.898 271.906 333.898C227.625 333.898 191.728 370.043 191.728 414.629C191.728 459.216 227.625 495.36 271.906 495.36Z" stroke="#A4A189" stroke-miterlimit="10"/>
<path d="M272.095 504.634C318.943 504.634 356.921 466.395 356.921 419.223C356.921 372.052 318.943 333.812 272.095 333.812C225.247 333.812 187.269 372.052 187.269 419.223C187.269 466.395 225.247 504.634 272.095 504.634Z" stroke="#A4A189" stroke-miterlimit="10"/>
<path d="M272.289 513.908C321.704 513.908 361.763 473.573 361.763 423.817C361.763 374.062 321.704 333.727 272.289 333.727C222.873 333.727 182.814 374.062 182.814 423.817C182.814 473.573 222.873 513.908 272.289 513.908Z" stroke="#A4A189" stroke-miterlimit="10"/>
<path d="M272.478 523.182C324.46 523.182 366.6 480.752 366.6 428.411C366.6 376.071 324.46 333.641 272.478 333.641C220.495 333.641 178.355 376.071 178.355 428.411C178.355 480.752 220.495 523.182 272.478 523.182Z" stroke="#A4A189" stroke-miterlimit="10"/>
<path d="M272.666 532.452C327.216 532.452 371.436 487.926 371.436 433.001C371.436 378.076 327.216 333.551 272.666 333.551C218.117 333.551 173.896 378.076 173.896 433.001C173.896 487.926 218.117 532.452 272.666 532.452Z" stroke="#A4A189" stroke-miterlimit="10"/>
<path d="M272.855 541.726C329.971 541.726 376.273 495.105 376.273 437.595C376.273 380.086 329.971 333.465 272.855 333.465C215.739 333.465 169.437 380.086 169.437 437.595C169.437 495.105 215.739 541.726 272.855 541.726Z" stroke="#A4A189" stroke-miterlimit="10"/>
<path d="M356.145 290.408C367.062 290.408 375.912 281.497 375.912 270.505C375.912 259.513 367.062 250.602 356.145 250.602C345.228 250.602 336.378 259.513 336.378 270.505C336.378 281.497 345.228 290.408 356.145 290.408Z" stroke="#A4A189" stroke-miterlimit="10"/>
<path d="M360.712 295.115C374.196 295.115 385.126 284.109 385.126 270.532C385.126 256.955 374.196 245.949 360.712 245.949C347.228 245.949 336.297 256.955 336.297 270.532C336.297 284.109 347.228 295.115 360.712 295.115Z" stroke="#A4A189" stroke-miterlimit="10"/>
<path d="M365.273 299.816C381.321 299.816 394.33 286.717 394.33 270.558C394.33 254.4 381.321 241.301 365.273 241.301C349.225 241.301 336.216 254.4 336.216 270.558C336.216 286.717 349.225 299.816 365.273 299.816Z" stroke="#A4A189" stroke-miterlimit="10"/>
<path d="M369.84 304.523C388.455 304.523 403.546 289.329 403.546 270.586C403.546 251.843 388.455 236.648 369.84 236.648C351.226 236.648 336.135 251.843 336.135 270.586C336.135 289.329 351.226 304.523 369.84 304.523Z" stroke="#A4A189" stroke-miterlimit="10"/>
<path d="M374.402 309.231C395.584 309.231 412.755 291.941 412.755 270.613C412.755 249.286 395.584 231.996 374.402 231.996C353.22 231.996 336.049 249.286 336.049 270.613C336.049 291.941 353.22 309.231 374.402 309.231Z" stroke="#A4A189" stroke-miterlimit="10"/>
<path d="M378.969 313.938C402.717 313.938 421.97 294.553 421.97 270.641C421.97 246.729 402.717 227.344 378.969 227.344C355.22 227.344 335.968 246.729 335.968 270.641C335.968 294.553 355.22 313.938 378.969 313.938Z" stroke="#A4A189" stroke-miterlimit="10"/>
<path d="M383.536 318.646C409.852 318.646 431.185 297.166 431.185 270.669C431.185 244.171 409.852 222.691 383.536 222.691C357.22 222.691 335.887 244.171 335.887 270.669C335.887 297.166 357.22 318.646 383.536 318.646Z" stroke="#A4A189" stroke-miterlimit="10"/>
<path d="M388.097 323.357C416.98 323.357 440.394 299.782 440.394 270.7C440.394 241.618 416.98 218.043 388.097 218.043C359.215 218.043 335.801 241.618 335.801 270.7C335.801 299.782 359.215 323.357 388.097 323.357Z" stroke="#A4A189" stroke-miterlimit="10"/>
<path d="M392.664 328.065C424.114 328.065 449.609 302.394 449.609 270.728C449.609 239.061 424.114 213.391 392.664 213.391C361.215 213.391 335.72 239.061 335.72 270.728C335.72 302.394 361.215 328.065 392.664 328.065Z" stroke="#A4A189" stroke-miterlimit="10"/>
<path d="M397.232 332.772C431.248 332.772 458.824 305.006 458.824 270.755C458.824 236.504 431.248 208.738 397.232 208.738C363.215 208.738 335.639 236.504 335.639 270.755C335.639 305.006 363.215 332.772 397.232 332.772Z" stroke="#A4A189" stroke-miterlimit="10"/>
<path d="M401.793 337.479C438.376 337.479 468.033 307.618 468.033 270.783C468.033 233.947 438.376 204.086 401.793 204.086C365.209 204.086 335.553 233.947 335.553 270.783C335.553 307.618 365.209 337.479 401.793 337.479Z" stroke="#A4A189" stroke-miterlimit="10"/>
<path d="M406.36 342.183C445.51 342.183 477.248 310.227 477.248 270.806C477.248 231.386 445.51 199.43 406.36 199.43C367.209 199.43 335.472 231.386 335.472 270.806C335.472 310.227 367.209 342.183 406.36 342.183Z" stroke="#A4A189" stroke-miterlimit="10"/>
<path d="M410.922 346.887C452.636 346.887 486.452 312.838 486.452 270.836C486.452 228.834 452.636 194.785 410.922 194.785C369.207 194.785 335.391 228.834 335.391 270.836C335.391 312.838 369.207 346.887 410.922 346.887Z" stroke="#A4A189" stroke-miterlimit="10"/>
<path d="M415.489 351.595C459.77 351.595 495.667 315.45 495.667 270.864C495.667 226.277 459.77 190.133 415.489 190.133C371.207 190.133 335.31 226.277 335.31 270.864C335.31 315.45 371.207 351.595 415.489 351.595Z" stroke="#A4A189" stroke-miterlimit="10"/>
<path d="M420.056 356.302C466.904 356.302 504.882 318.063 504.882 270.891C504.882 223.72 466.904 185.48 420.056 185.48C373.208 185.48 335.229 223.72 335.229 270.891C335.229 318.063 373.208 356.302 420.056 356.302Z" stroke="#A4A189" stroke-miterlimit="10"/>
<path d="M424.617 361.006C474.033 361.006 514.091 320.671 514.091 270.915C514.091 221.159 474.033 180.824 424.617 180.824C375.202 180.824 335.143 221.159 335.143 270.915C335.143 320.671 375.202 361.006 424.617 361.006Z" stroke="#A4A189" stroke-miterlimit="10"/>
<path d="M429.184 365.713C481.166 365.713 523.306 323.283 523.306 270.943C523.306 218.602 481.166 176.172 429.184 176.172C377.202 176.172 335.062 218.602 335.062 270.943C335.062 323.283 377.202 365.713 429.184 365.713Z" stroke="#A4A189" stroke-miterlimit="10"/>
<path d="M433.746 370.421C488.295 370.421 532.516 325.895 532.516 270.97C532.516 216.045 488.295 171.52 433.746 171.52C379.197 171.52 334.976 216.045 334.976 270.97C334.976 325.895 379.197 370.421 433.746 370.421Z" stroke="#A4A189" stroke-miterlimit="10"/>
<path d="M438.313 375.128C495.429 375.128 541.731 328.507 541.731 270.998C541.731 213.488 495.429 166.867 438.313 166.867C381.197 166.867 334.895 213.488 334.895 270.998C334.895 328.507 381.197 375.128 438.313 375.128Z" stroke="#A4A189" stroke-miterlimit="10"/>
<path d="M189.555 292.416C200.471 292.416 209.321 283.505 209.321 272.513C209.321 261.52 200.471 252.609 189.555 252.609C178.638 252.609 169.788 261.52 169.788 272.513C169.788 283.505 178.638 292.416 189.555 292.416Z" stroke="#A4A189" stroke-miterlimit="10"/>
<path d="M184.993 297.01C198.477 297.01 209.408 286.004 209.408 272.427C209.408 258.85 198.477 247.844 184.993 247.844C171.509 247.844 160.578 258.85 160.578 272.427C160.578 286.004 171.509 297.01 184.993 297.01Z" stroke="#A4A189" stroke-miterlimit="10"/>
<path d="M180.426 301.601C196.474 301.601 209.483 288.502 209.483 272.343C209.483 256.185 196.474 243.086 180.426 243.086C164.378 243.086 151.369 256.185 151.369 272.343C151.369 288.502 164.378 301.601 180.426 301.601Z" stroke="#A4A189" stroke-miterlimit="10"/>
<path d="M175.864 306.195C194.479 306.195 209.569 291.001 209.569 272.258C209.569 253.515 194.479 238.32 175.864 238.32C157.249 238.32 142.159 253.515 142.159 272.258C142.159 291.001 157.249 306.195 175.864 306.195Z" stroke="#A4A189" stroke-miterlimit="10"/>
<path d="M171.297 310.793C192.479 310.793 209.65 293.504 209.65 272.176C209.65 250.848 192.479 233.559 171.297 233.559C150.116 233.559 132.944 250.848 132.944 272.176C132.944 293.504 150.116 310.793 171.297 310.793Z" stroke="#A4A189" stroke-miterlimit="10"/>
<path d="M166.736 315.387C190.485 315.387 209.737 296.003 209.737 272.09C209.737 248.178 190.485 228.793 166.736 228.793C142.987 228.793 123.735 248.178 123.735 272.09C123.735 296.003 142.987 315.387 166.736 315.387Z" stroke="#A4A189" stroke-miterlimit="10"/>
<path d="M162.169 319.986C188.484 319.986 209.818 298.505 209.818 272.008C209.818 245.511 188.484 224.031 162.169 224.031C135.853 224.031 114.52 245.511 114.52 272.008C114.52 298.505 135.853 319.986 162.169 319.986Z" stroke="#A4A189" stroke-miterlimit="10"/>
<path d="M157.607 324.58C186.49 324.58 209.904 301.004 209.904 271.923C209.904 242.841 186.49 219.266 157.607 219.266C128.725 219.266 105.311 242.841 105.311 271.923C105.311 301.004 128.725 324.58 157.607 324.58Z" stroke="#A4A189" stroke-miterlimit="10"/>
<path d="M153.04 329.178C184.49 329.178 209.985 303.507 209.985 271.841C209.985 240.175 184.49 214.504 153.04 214.504C121.591 214.504 96.0957 240.175 96.0957 271.841C96.0957 303.507 121.591 329.178 153.04 329.178Z" stroke="#A4A189" stroke-miterlimit="10"/>
<path d="M148.479 333.776C182.495 333.776 210.071 306.01 210.071 271.759C210.071 237.508 182.495 209.742 148.479 209.742C114.462 209.742 86.8862 237.508 86.8862 271.759C86.8862 306.01 114.462 333.776 148.479 333.776Z" stroke="#A4A189" stroke-miterlimit="10"/>
<path d="M143.912 338.366C180.495 338.366 210.152 308.505 210.152 271.669C210.152 234.834 180.495 204.973 143.912 204.973C107.328 204.973 77.6714 234.834 77.6714 271.669C77.6714 308.505 107.328 338.366 143.912 338.366Z" stroke="#A4A189" stroke-miterlimit="10"/>
<path d="M139.35 342.968C178.5 342.968 210.238 311.012 210.238 271.591C210.238 232.171 178.5 200.215 139.35 200.215C100.2 200.215 68.4619 232.171 68.4619 271.591C68.4619 311.012 100.2 342.968 139.35 342.968Z" stroke="#A4A189" stroke-miterlimit="10"/>
<path d="M134.783 347.555C176.497 347.555 210.314 313.506 210.314 271.504C210.314 229.502 176.497 195.453 134.783 195.453C93.0686 195.453 59.2524 229.502 59.2524 271.504C59.2524 313.506 93.0686 347.555 134.783 347.555Z" stroke="#A4A189" stroke-miterlimit="10"/>
<path d="M130.221 352.153C174.503 352.153 210.4 316.009 210.4 271.422C210.4 226.836 174.503 190.691 130.221 190.691C85.9401 190.691 50.043 226.836 50.043 271.422C50.043 316.009 85.9401 352.153 130.221 352.153Z" stroke="#A4A189" stroke-miterlimit="10"/>
<path d="M125.654 356.744C172.503 356.744 210.481 318.504 210.481 271.333C210.481 224.162 172.503 185.922 125.654 185.922C78.8062 185.922 40.8281 224.162 40.8281 271.333C40.8281 318.504 78.8062 356.744 125.654 356.744Z" stroke="#A4A189" stroke-miterlimit="10"/>
<path d="M121.093 361.346C170.508 361.346 210.567 321.011 210.567 271.255C210.567 221.499 170.508 181.164 121.093 181.164C71.6776 181.164 31.6187 221.499 31.6187 271.255C31.6187 321.011 71.6776 361.346 121.093 361.346Z" stroke="#A4A189" stroke-miterlimit="10"/>
<path d="M116.526 365.936C168.508 365.936 210.648 323.506 210.648 271.165C210.648 218.825 168.508 176.395 116.526 176.395C64.5437 176.395 22.4038 218.825 22.4038 271.165C22.4038 323.506 64.5437 365.936 116.526 365.936Z" stroke="#A4A189" stroke-miterlimit="10"/>
<path d="M111.964 370.534C166.513 370.534 210.734 326.009 210.734 271.083C210.734 216.158 166.513 171.633 111.964 171.633C57.4151 171.633 13.1943 216.158 13.1943 271.083C13.1943 326.009 57.4151 370.534 111.964 370.534Z" stroke="#A4A189" stroke-miterlimit="10"/>
<path d="M107.397 375.128C164.513 375.128 210.815 328.507 210.815 270.998C210.815 213.488 164.513 166.867 107.397 166.867C50.2812 166.867 3.97949 213.488 3.97949 270.998C3.97949 328.507 50.2812 375.128 107.397 375.128Z" stroke="#A4A189" stroke-miterlimit="10"/>
</g>
<defs>
<clipPath id="clip0_584_148">
<rect width="542" height="542" fill="white"/>
</clipPath>
</defs>
</svg>
