<svg width="500" height="300" viewBox="0 0 500 300" fill="none" xmlns="http://www.w3.org/2000/svg">
<g clip-path="url(#clip0_1348_857)">
<rect width="500" height="300" fill="white"/>
<mask id="mask0_1348_857" style="mask-type:luminance" maskUnits="userSpaceOnUse" x="-12" y="25" width="558" height="275">
<path d="M545.658 25.5049H-11.875V299.804H545.658V25.5049Z" fill="white"/>
</mask>
<g mask="url(#mask0_1348_857)">
<path d="M443.605 242.468C503.338 250.419 545.45 258.882 545.45 258.882" stroke="#3C001D" stroke-width="0.926662" stroke-linecap="round" stroke-linejoin="round"/>
<path d="M256.285 228.777C260.758 228.763 266.862 228.777 271.305 228.821" stroke="#3C001D" stroke-width="0.926662" stroke-linecap="round" stroke-linejoin="round"/>
<path d="M192.361 230.688C202.49 230.144 212.71 229.699 222.95 229.374" stroke="#3C001D" stroke-width="0.926662" stroke-linecap="round" stroke-linejoin="round"/>
<path d="M98.543 238.344C103.117 237.854 107.782 237.372 112.526 236.898" stroke="#3C001D" stroke-width="0.926662" stroke-linecap="round" stroke-linejoin="round"/>
<path d="M-11.6621 253.173C-11.6621 253.173 25.2783 246.79 78.7795 240.553" stroke="#3C001D" stroke-width="0.926662" stroke-linecap="round" stroke-linejoin="round"/>
<path d="M418.197 219.631L417.383 183.998L450.171 181.172L469.566 191.974L467.549 212.016L476.469 212.699L487.095 219.269L484.681 248.299L451.07 243.475L443.624 242.523L443.943 238.313L427.377 220.661L418.197 219.631Z" stroke="#3C001D" stroke-width="0.926662" stroke-linecap="round" stroke-linejoin="round"/>
<path d="M369.545 220.718V155.467L390.671 152.702L405.331 164.093L405.519 217.965" stroke="#3C001D" stroke-width="0.926662" stroke-linecap="round" stroke-linejoin="round"/>
<path d="M336.381 204.182L336.39 195.252L360.44 193.872L369.547 198.467V220.718" stroke="#3C001D" stroke-width="0.926662" stroke-miterlimit="10"/>
<path d="M315.596 184.462V172.632L326.798 171.311L332.514 177.422V201.449" stroke="#3C001D" stroke-width="0.926662" stroke-miterlimit="10"/>
<path d="M405.52 217.965L405.467 202.433L411.18 201.791L417.885 205.562L418.212 219.631" stroke="#3C001D" stroke-width="0.926662" stroke-miterlimit="10"/>
<path d="M295.583 229.254L291.361 229.187" stroke="#3C001D" stroke-width="0.926662" stroke-miterlimit="10"/>
<path d="M267.529 228.803L266.453 192.199L276.156 191.643" stroke="#3C001D" stroke-width="0.926662" stroke-miterlimit="10"/>
<path d="M192.42 230.689L194.305 230.585L199.072 230.342L206.806 229.984L214.427 229.672L214.625 223.058" stroke="#3C001D" stroke-width="0.926662" stroke-miterlimit="10"/>
<path d="M215.413 196.712L215.499 193.872L197.925 189.376L181.629 197.584L182.28 207.755" stroke="#3C001D" stroke-width="0.926662" stroke-miterlimit="10"/>
<path d="M154.496 218.549V170.61L129.106 164.05L109.889 174.715L112.159 236.936" stroke="#3C001D" stroke-width="0.926662" stroke-miterlimit="10"/>
<path d="M172.017 217.834L172.993 166.635L161.683 163.407L151.701 168.228V169.889" stroke="#3C001D" stroke-width="0.926662" stroke-miterlimit="10"/>
<path d="M101.318 238.05L101.699 194.335L72.0132 191.161L53.8262 201.882L55.4541 243.403" stroke="#3C001D" stroke-width="0.926662" stroke-miterlimit="10"/>
<path d="M36.9297 245.854L36.373 233.123L48.9044 225.774H54.7645" stroke="#3C001D" stroke-width="0.926662" stroke-miterlimit="10"/>
<path d="M101.463 221.347L104.728 219.626L111.54 219.933" stroke="#3C001D" stroke-width="0.926662" stroke-miterlimit="10"/>
<path d="M172.25 205.471L175.917 203.752H182.022" stroke="#3C001D" stroke-width="0.926662" stroke-miterlimit="10"/>
<path d="M256.984 217.635L264.469 217.308L267.208 217.834L267.529 228.803" stroke="#3C001D" stroke-width="0.926662" stroke-miterlimit="10"/>
<path d="M28.8061 234.189H26.8497C24.9996 234.189 23.5 235.69 23.5 237.543V239.501C23.5 241.353 24.9996 242.854 26.8497 242.854H28.8061C30.6562 242.854 32.1559 241.353 32.1559 239.501V237.543C32.1559 235.69 30.6562 234.189 28.8061 234.189Z" stroke="#3C001D" stroke-width="0.926662" stroke-miterlimit="10"/>
<path d="M27.8269 247.12V240.95L26.4316 239.531" stroke="#3C001D" stroke-width="0.926662" stroke-miterlimit="10"/>
<path d="M29.1803 238.734L27.8262 241.091" stroke="#3C001D" stroke-width="0.926662" stroke-miterlimit="10"/>
<path d="M255.457 247.197H257.413C259.263 247.197 260.763 245.695 260.763 243.843V241.885C260.763 240.033 259.263 238.532 257.413 238.532H255.457C253.607 238.532 252.107 240.033 252.107 241.885V243.843C252.107 245.695 253.607 247.197 255.457 247.197Z" stroke="#3C001D" stroke-width="0.926662" stroke-miterlimit="10"/>
<path d="M256.439 251.463V245.294L257.835 243.874" stroke="#3C001D" stroke-width="0.926662" stroke-miterlimit="10"/>
<path d="M255.084 243.077L256.439 245.433" stroke="#3C001D" stroke-width="0.926662" stroke-miterlimit="10"/>
<path d="M495.631 239.12H494.851C492.998 239.12 491.502 240.621 491.502 242.473V243.254C491.502 245.106 492.998 246.607 494.851 246.607H495.631C497.479 246.607 498.98 245.106 498.98 243.254V242.473C498.98 240.621 497.479 239.12 495.631 239.12Z" stroke="#3C001D" stroke-width="0.926662" stroke-miterlimit="10"/>
<path d="M495.238 250.292V244.961L494.033 243.735" stroke="#3C001D" stroke-width="0.926662" stroke-miterlimit="10"/>
<path d="M496.407 243.046L495.234 245.082" stroke="#3C001D" stroke-width="0.926662" stroke-miterlimit="10"/>
<path d="M464.518 252.5H458.441C454.454 252.5 451.219 255.736 451.219 259.729V265.814C451.219 269.806 454.454 273.042 458.441 273.042H464.518C468.506 273.042 471.741 269.806 471.741 265.814V259.729C471.741 255.736 468.506 252.5 464.518 252.5Z" stroke="#3C001D" stroke-width="0.926662" stroke-miterlimit="10"/>
<path d="M461.48 283.155V268.528L458.172 265.165" stroke="#3C001D" stroke-width="0.926662" stroke-miterlimit="10"/>
<path d="M464.692 263.276L461.48 268.861" stroke="#3C001D" stroke-width="0.926662" stroke-miterlimit="10"/>
<path d="M236.061 206.721L241.046 205.982L257.517 209.217L255.665 238.533" stroke="#3C001D" stroke-width="0.926662" stroke-miterlimit="10"/>
<path d="M223.421 239.556L222.414 217.837" stroke="#3C001D" stroke-width="0.926662" stroke-miterlimit="10"/>
<path d="M252.109 242.705L240.6 244.997L229.492 243.495" stroke="#3C001D" stroke-width="0.926662" stroke-miterlimit="10"/>
<path d="M290.404 243.207L282.072 247.091L266.189 245.402L265.379 235.188L273.895 226.112L286.703 224.538L295.214 233.03L295.07 234.748" stroke="#3C001D" stroke-width="0.926662" stroke-miterlimit="10"/>
<path d="M282.072 247.091L283.002 236.319" stroke="#3C001D" stroke-width="0.926662" stroke-miterlimit="10"/>
<path d="M402.214 257.151L411.472 261.466L442.364 258.181L443.943 238.313L427.376 220.661L402.462 217.597L388.805 231.226" stroke="#3C001D" stroke-width="0.926662" stroke-miterlimit="10"/>
<path d="M411.471 261.466L409.777 240.546" stroke="#3C001D" stroke-width="0.926662" stroke-miterlimit="10"/>
<path d="M446.224 240.48C446.47 239.718 447.022 239.075 447.716 238.677C448.067 238.475 448.45 238.335 448.852 238.272C449.034 238.243 449.312 238.296 449.481 238.238C449.778 238.134 449.896 237.682 449.979 237.419C450.097 237.038 450.202 236.674 450.357 236.304C450.832 235.194 451.936 234.483 453.14 234.507L461.859 234.842C462.904 234.862 463.876 235.397 464.455 236.271L466.472 239.325L469.073 239.816C469.616 239.918 470.086 240.35 470.204 240.896C470.336 241.5 470.437 242.232 470.373 242.85C470.259 243.938 469.337 244.786 468.215 244.633C468.215 244.633 446.894 241.724 446.885 241.723C446.105 241.617 446.027 241.065 446.219 240.478L446.224 240.48Z" stroke="#3C001D" stroke-width="0.926662" stroke-miterlimit="10"/>
<path d="M449.984 242.169C449.893 242.916 449.19 243.444 448.414 243.348C447.639 243.252 447.087 242.569 447.178 241.822" fill="#3C001D"/>
<path d="M455.732 242.937C455.641 243.685 454.938 244.213 454.162 244.117C453.387 244.021 452.835 243.338 452.926 242.59" fill="#3C001D"/>
<path d="M460.956 243.706C460.865 244.454 460.163 244.982 459.387 244.886C458.611 244.79 458.059 244.107 458.15 243.359" fill="#3C001D"/>
<path d="M467.882 244.62C467.791 245.368 467.088 245.896 466.313 245.8C465.537 245.704 464.985 245.021 465.076 244.274" fill="#3C001D"/>
<path d="M466.477 239.325C464.78 239.172 463.078 238.982 461.376 238.856C461.03 238.831 460.728 238.616 460.592 238.297L459.798 236.464C459.684 236.198 459.889 235.906 460.176 235.92L464.42 236.139" stroke="#3C001D" stroke-width="0.926662" stroke-miterlimit="10"/>
<path d="M451.895 238.241L458.009 238.645C458.493 238.67 458.858 238.251 458.739 237.815L458.319 236.311C458.242 236.025 457.968 235.822 457.649 235.815L452.543 235.613C452.251 235.605 451.987 235.767 451.873 236.016L451.28 237.318C451.088 237.742 451.403 238.216 451.891 238.243L451.895 238.241Z" stroke="#3C001D" stroke-width="0.926662" stroke-miterlimit="10"/>
<path d="M462.881 242.592C463.447 242.592 463.903 242.134 463.903 241.569C463.903 241.004 463.447 240.546 462.881 240.546C462.32 240.546 461.859 241.004 461.859 241.569C461.859 242.134 462.32 242.592 462.881 242.592Z" stroke="#3C001D" stroke-width="0.926662" stroke-miterlimit="10"/>
<path d="M469.364 243.361C469.93 243.361 470.386 242.903 470.386 242.338C470.386 241.773 469.93 241.315 469.364 241.315C468.798 241.315 468.342 241.773 468.342 242.338C468.342 242.903 468.798 243.361 469.364 243.361Z" stroke="#3C001D" stroke-width="0.926662" stroke-miterlimit="10"/>
<path d="M48.9023 225.774L49.6593 244.152" stroke="#3C001D" stroke-width="0.926662" stroke-miterlimit="10"/>
<path d="M72.0117 191.161L73.4918 241.177" stroke="#3C001D" stroke-width="0.926662" stroke-miterlimit="10"/>
<path d="M104.729 219.626L105.24 237.64" stroke="#3C001D" stroke-width="0.926662" stroke-miterlimit="10"/>
<path d="M131.514 219.581L129.105 164.05" stroke="#3C001D" stroke-width="0.926662" stroke-miterlimit="10"/>
<path d="M161.683 163.407L161.461 218.28" stroke="#3C001D" stroke-width="0.926662" stroke-miterlimit="10"/>
<path d="M175.92 203.752V221.347" stroke="#3C001D" stroke-width="0.926662" stroke-miterlimit="10"/>
<path d="M197.927 189.376L197.621 212.549" stroke="#3C001D" stroke-width="0.926662" stroke-miterlimit="10"/>
<path d="M197.41 228.402V230.427" stroke="#3C001D" stroke-width="0.926662" stroke-miterlimit="10"/>
<path d="M241.046 205.982L240.602 244.997" stroke="#3C001D" stroke-width="0.926662" stroke-miterlimit="10"/>
<path d="M264.469 217.308L264.199 228.696" stroke="#3C001D" stroke-width="0.926662" stroke-miterlimit="10"/>
<path d="M289.801 214.034L289.868 227.694" stroke="#3C001D" stroke-width="0.926662" stroke-miterlimit="10"/>
<path d="M326.803 171.311V200.007" stroke="#3C001D" stroke-width="0.926662" stroke-miterlimit="10"/>
<path d="M360.439 193.872L359.965 225.5" stroke="#3C001D" stroke-width="0.926662" stroke-miterlimit="10"/>
<path d="M390.672 152.702L390.733 229.363" stroke="#3C001D" stroke-width="0.926662" stroke-miterlimit="10"/>
<path d="M411.178 201.791L411.477 218.829" stroke="#3C001D" stroke-width="0.926662" stroke-miterlimit="10"/>
<path d="M450.17 181.172V211.04L467.549 212.016" stroke="#3C001D" stroke-width="0.926662" stroke-miterlimit="10"/>
<path d="M476.463 212.699L474.045 246.607" stroke="#3C001D" stroke-width="0.926662" stroke-miterlimit="10"/>
<path d="M427.377 220.661L409.779 240.547L391.598 235.613" stroke="#3C001D" stroke-width="0.926662" stroke-miterlimit="10"/>
<path d="M277.936 113.974C277.598 113.552 277.26 113.129 276.923 112.707C276.833 112.594 276.738 112.474 276.709 112.333C276.682 112.207 276.707 112.076 276.733 111.949C276.936 110.96 277.293 109.95 277.596 108.986C277.94 107.892 278.133 106.801 278.441 106.359C277.847 108.893 277.442 111.582 277.938 113.974H277.936Z" fill="#3C001D"/>
<path d="M299.387 123.585C299.361 123.564 299.139 124.091 299.096 124.197C298.954 124.556 298.821 124.919 298.7 125.285C298.466 125.995 298.271 126.717 298.118 127.449C297.789 129.018 297.727 130.581 297.682 132.174C297.681 132.236 297.681 132.303 297.718 132.352C297.75 132.397 297.806 132.417 297.859 132.435C298.529 132.665 299.201 132.896 299.872 133.126C299.669 131.755 299.332 130.403 299.205 129.022C299.134 128.235 299.114 127.445 299.148 126.655C299.169 126.157 299.284 125.661 299.359 125.17C299.427 124.718 299.622 124.013 299.387 123.587V123.585Z" fill="#3C001D"/>
<path d="M305.494 137.143C306.189 137.291 307.18 136.996 307.881 136.858C308.009 136.832 308.15 136.799 308.225 136.691C308.334 136.536 308.245 136.323 308.158 136.155C307.616 135.109 307.377 133.882 306.833 132.867C307.054 133.279 306.733 134.463 306.624 134.883C306.399 135.749 305.931 136.391 305.494 137.142V137.143Z" fill="#3C001D"/>
<path d="M210.847 87.3704C210.927 87.3886 211.008 87.4128 211.088 87.4453C211.495 87.6102 211.622 88.0884 211.661 88.5259C212.237 88.1957 212.999 87.7431 213.526 87.4042C214.241 86.9456 214.954 86.4875 215.668 86.029C215.819 85.9312 215.991 85.7778 215.93 85.6083C215.655 85.5151 215.357 85.5887 215.076 85.6604C213.812 85.9906 212.548 86.3194 211.284 86.6496C210.557 86.8387 210.454 87.1658 209.752 87.4284C210.235 87.3818 210.359 87.2589 210.847 87.369V87.3704Z" fill="#3C001D"/>
<path d="M254.443 163.407C254.443 163.407 258.443 169.226 256.569 181.172L257.788 178.857L260.287 173.196L260.85 171.71L258.185 168.05L254.976 164.063L254.445 163.406L254.443 163.407Z" fill="#3C001D"/>
<path d="M196.332 111.99C196.332 111.99 197.8 115.431 200.112 114.085L199.112 115.118L198.237 116.431L197.488 115.211L196.332 111.99Z" fill="#3C001D"/>
<path d="M185.476 221.128C185.476 221.128 185.617 224.788 188.053 225.35L187.584 225.772H187.115L186.037 224.834L185.428 223.051L185.474 221.128H185.476Z" fill="#3C001D"/>
<path d="M191.426 227.274C191.426 227.274 193.441 228.259 197.565 226.616L198.034 227.133L198.878 228.212L197.754 228.399L195.083 228.587L193.114 228.821L192.13 228.071L191.427 227.274H191.426Z" fill="#3C001D"/>
<path d="M238.01 144.094C238.01 144.094 238.197 142.076 240.729 141.655L240.072 140.059L239.275 137.432L238.901 138.98L238.431 142.076L238.01 144.094Z" fill="#3C001D"/>
<path d="M308.123 229.284C307.494 230.914 306.646 232.455 305.593 233.865C304.993 234.669 304.33 235.425 303.612 236.125C303.371 236.359 303.127 236.588 302.893 236.827C302.758 236.966 302.481 237.334 302.262 237.326C303.042 237.354 303.638 237.168 304.343 237.001C304.701 236.916 305.218 236.727 305.556 236.582C306.282 236.27 307.174 236.034 307.878 235.675C308.199 235.51 308.727 235.219 308.996 234.977C310.392 233.721 311.184 232.418 311.864 230.668C312.196 229.819 312.417 228.819 311.963 228.028C311.698 227.568 311.229 227.234 311.049 226.735C310.92 226.378 310.802 225.469 310.833 225.091C310.957 223.638 311.102 222.607 310.362 221.351C310.162 221.013 309.504 219.562 309.287 219.434C309.291 219.437 309.291 219.893 309.295 219.925C309.321 220.152 309.346 220.378 309.365 220.605C309.401 221.042 309.422 221.48 309.429 221.917C309.443 222.793 309.398 223.671 309.297 224.541C309.105 226.17 308.709 227.764 308.123 229.284Z" fill="#3C001D"/>
<path d="M92.6373 208.94C92.5552 209.036 92.4694 209.127 92.3818 209.218C92.3777 209.223 92.3695 209.222 92.3649 209.228C92.3567 209.237 92.344 209.242 92.3371 209.251L92.3284 209.259C92.2678 209.31 92.2043 209.365 92.13 209.412C91.8676 209.588 91.5971 209.715 91.311 209.79C90.3921 210.032 89.3706 209.743 88.5685 208.917C87.4493 207.768 87.5497 206.085 88.443 205.038C89.5718 203.461 91.5127 201.291 88.8263 198.962C88.3431 198.543 87.9849 198.202 86.4629 197.627C87.458 197.532 88.381 197.668 89.4084 198.021C90.1343 198.495 91.2772 199.474 91.666 200.694C92.2536 202.545 90.6316 205.095 89.8483 206.062C88.7729 207.402 90.5135 209.108 91.7942 207.486C92.4639 206.641 93.6365 204.188 93.2291 202.256C92.9909 201.16 92.6738 200.349 91.415 199.161C91.6491 199.319 91.8745 199.495 92.0944 199.69C95.0189 202.672 94.679 206.859 92.6355 208.94H92.6373Z" fill="#3C001D"/>
<path d="M82.6833 199.462C82.7654 199.367 82.8512 199.277 82.9383 199.185C82.9429 199.181 82.9511 199.181 82.9557 199.175C82.9639 199.167 82.9753 199.161 82.9835 199.152L82.9922 199.144C83.0528 199.093 83.1163 199.038 83.1906 198.992C83.453 198.815 83.7235 198.688 84.0096 198.613C84.9285 198.371 85.95 198.66 86.7521 199.487C87.8708 200.635 87.7709 202.318 86.8776 203.365C85.7488 204.942 83.8079 207.112 86.4943 209.441C86.9775 209.86 87.3357 210.202 88.8577 210.776C87.8626 210.872 86.9396 210.735 85.9122 210.382C85.1863 209.908 84.0434 208.929 83.6546 207.709C83.067 205.858 84.689 203.309 85.4723 202.341C86.5477 201 84.8071 199.295 83.526 200.917C82.8567 201.762 81.6841 204.216 82.0915 206.147C82.3297 207.243 82.6468 208.055 83.9051 209.242C83.6715 209.084 83.4457 208.908 83.2262 208.713C80.3017 205.731 80.6416 201.545 82.6847 199.462H82.6833Z" fill="#3C001D"/>
<path d="M375.836 163.191C376.027 163.142 376.218 163.135 376.407 163.093C376.668 163.033 376.928 163.001 377.188 162.949C377.439 162.899 377.689 162.857 377.942 162.81C378.062 162.788 378.18 162.77 378.3 162.753C378.353 162.745 378.401 162.716 378.454 162.708C378.475 162.705 378.483 162.682 378.491 162.665C378.535 162.576 378.559 162.482 378.591 162.39C378.659 162.205 378.723 162.019 378.788 161.833C378.829 161.711 378.872 161.59 378.914 161.469C378.979 161.283 379.044 161.096 379.11 160.912C379.171 160.737 379.231 160.562 379.292 160.387C379.345 160.236 379.398 160.085 379.453 159.935C379.482 159.852 379.586 159.772 379.671 159.763C379.756 159.753 379.854 159.811 379.883 159.886C379.961 160.092 380.04 160.299 380.119 160.504C380.222 160.768 380.326 161.03 380.428 161.295C380.519 161.535 380.617 161.771 380.704 162.013C380.741 162.113 380.781 162.212 380.821 162.311C380.837 162.35 380.86 162.366 380.908 162.37C381.013 162.379 381.117 162.349 381.221 162.342C381.379 162.331 381.538 162.301 381.696 162.29C381.806 162.281 381.917 162.254 382.026 162.256C382.184 162.259 382.343 162.215 382.5 162.208C382.606 162.204 382.714 162.174 382.818 162.177C382.975 162.181 383.131 162.136 383.286 162.13C383.393 162.126 383.499 162.108 383.604 162.095C383.755 162.078 383.835 162.13 383.868 162.273C383.883 162.339 383.824 162.462 383.754 162.524C383.638 162.627 383.525 162.734 383.411 162.84C383.277 162.963 383.142 163.084 383.01 163.208C382.919 163.293 382.832 163.38 382.742 163.465C382.641 163.561 382.536 163.653 382.433 163.748C382.294 163.879 382.154 164.011 382.015 164.142C381.89 164.258 381.768 164.375 381.64 164.487C381.598 164.523 381.589 164.554 381.602 164.597C381.657 164.788 381.713 164.98 381.768 165.171C381.834 165.398 381.903 165.625 381.969 165.852C382.03 166.061 382.088 166.271 382.149 166.478C382.206 166.679 382.268 166.876 382.328 167.075C382.35 167.153 382.364 167.229 382.315 167.315C382.246 167.434 382.106 167.494 381.984 167.431C381.614 167.239 381.247 167.044 380.879 166.851C380.598 166.703 380.316 166.555 380.037 166.407C379.924 166.347 379.812 166.285 379.7 166.223C379.674 166.207 379.655 166.209 379.626 166.232C379.3 166.498 378.973 166.763 378.647 167.029C378.286 167.321 377.923 167.613 377.561 167.905C377.496 167.957 377.43 168.008 377.365 168.063C377.229 168.177 377.141 168.163 377.052 168.112C376.975 168.067 376.959 167.953 376.996 167.826C377.05 167.639 377.095 167.453 377.145 167.267C377.181 167.139 377.219 167.01 377.254 166.882C377.285 166.768 377.315 166.655 377.346 166.54C377.389 166.377 377.434 166.213 377.478 166.048C377.525 165.875 377.571 165.701 377.618 165.529C377.651 165.402 377.687 165.275 377.722 165.15C377.736 165.099 377.725 165.069 377.681 165.042C377.522 164.945 377.369 164.838 377.213 164.738C377.057 164.636 376.897 164.539 376.741 164.437C376.604 164.348 376.471 164.254 376.334 164.165C376.206 164.081 376.073 164.002 375.945 163.919C375.835 163.849 375.728 163.774 375.618 163.702C375.565 163.668 375.515 163.637 375.481 163.579C375.415 163.467 375.491 163.282 375.639 163.231C375.704 163.208 375.769 163.204 375.835 163.194L375.836 163.191Z" fill="#3C001D"/>
<path d="M383.496 167.61C385.837 165.096 385.965 161.407 383.784 159.371C381.601 157.334 377.935 157.722 375.594 160.235C373.253 162.749 373.124 166.438 375.306 168.474C377.488 170.511 381.155 170.124 383.496 167.61Z" stroke="#3C001D" stroke-width="0.926662" stroke-linecap="round" stroke-linejoin="round"/>
<path fill-rule="evenodd" clip-rule="evenodd" d="M351.81 199.284C352.461 199.665 352.822 200.04 352.935 200.449C353.006 200.679 352.943 200.977 352.782 201.216C352.622 201.455 352.365 201.612 352.068 201.654C351.955 201.669 351.835 201.669 351.723 201.654C351.756 201.558 351.795 201.458 351.835 201.359C351.868 201.362 351.907 201.356 351.948 201.35C352.044 201.336 352.157 201.305 352.245 201.221C352.31 201.164 352.382 201.065 352.374 200.906C352.374 200.754 352.254 200.579 352.005 200.381C351.828 200.237 351.588 200.088 351.346 199.952C350.656 199.592 350.174 199.532 349.957 199.779C349.812 199.944 349.829 200.118 349.877 200.239C349.776 200.319 349.682 200.391 349.595 200.455C349.386 200.171 349.376 199.796 349.555 199.434C349.668 199.202 349.844 199.032 350.045 198.965C350.126 198.938 350.206 198.918 350.295 198.905C350.736 198.843 351.291 198.982 351.813 199.285L351.81 199.284ZM349.534 200.771C349.79 200.599 350.164 200.309 350.59 199.912C350.75 199.952 350.959 200.035 351.215 200.168C351.52 200.326 351.786 200.512 351.954 200.666C351.673 201.074 351.489 201.604 351.376 201.972C351.985 202.684 352.347 203.629 352.347 204.708C352.347 207.329 350.219 209.753 347.594 210.123C344.968 210.492 342.84 208.667 342.84 206.046C342.84 203.424 344.968 201 347.594 200.631C348.282 200.534 348.939 200.588 349.531 200.771H349.533H349.534ZM347.594 209.859C345.112 210.207 343.105 208.486 343.105 206.009C343.105 203.532 345.113 201.244 347.594 200.896C350.075 200.548 352.082 202.269 352.082 204.746C352.082 207.223 350.067 209.512 347.594 209.859ZM352.138 200.946C352.138 200.921 352.13 200.882 352.106 200.845C352.05 200.933 351.993 201.021 351.945 201.125C352.002 201.116 352.067 201.092 352.098 201.063C352.113 201.044 352.138 201.017 352.138 200.944V200.946ZM350.316 199.879C350.212 199.879 350.147 199.903 350.123 199.93C350.075 199.976 350.067 200.034 350.075 200.089C350.155 200.021 350.236 199.954 350.316 199.879ZM349.867 204.192C350.999 204.128 351.858 204.248 351.858 204.738C351.858 207.087 349.947 209.264 347.594 209.595C345.263 209.922 343.357 208.318 343.322 206.003C343.322 205.995 343.322 205.986 343.322 205.979V205.966V205.938C343.353 205.398 344.008 205.325 345.175 205.292C345.713 205.281 346.452 205.217 347.271 204.86C348.218 204.439 349.045 204.242 349.864 204.19L349.867 204.192ZM347.365 205.158H347.364C346.484 205.54 345.696 205.607 345.14 205.619C344.531 205.636 344.114 205.665 343.853 205.744C343.726 205.782 343.681 205.82 343.668 205.834C343.668 205.834 343.646 205.858 343.646 205.933C343.646 206.03 343.698 206.168 343.863 206.318C344.025 206.466 344.279 206.604 344.621 206.703C345.305 206.901 346.308 206.926 347.534 206.58C348.444 206.322 349.008 206.021 349.561 205.728C349.769 205.617 349.977 205.507 350.199 205.401C350.419 205.298 350.63 205.215 350.815 205.144C350.849 205.131 350.883 205.119 350.915 205.106C351.062 205.051 351.184 205.004 351.29 204.956C351.424 204.897 351.49 204.853 351.521 204.825C351.523 204.824 351.524 204.822 351.525 204.821C351.524 204.79 351.489 204.681 351.16 204.595C350.85 204.513 350.391 204.488 349.838 204.518C349.062 204.566 348.276 204.752 347.365 205.157H347.364L347.365 205.158ZM348.991 203.16C349.39 203.104 349.715 202.736 349.715 202.336C349.715 201.937 349.39 201.661 348.991 201.717C348.593 201.774 348.268 202.142 348.268 202.541C348.268 202.94 348.593 203.217 348.991 203.16ZM350.477 203.185C350.477 203.352 350.34 203.509 350.171 203.532C350.002 203.554 349.865 203.438 349.865 203.269C349.865 203.1 350.002 202.945 350.171 202.922C350.34 202.9 350.477 203.015 350.477 203.185Z" fill="#3C001D"/>
<path d="M145.223 179.984V179.981C144.506 179.801 143.928 179.096 143.928 178.394C143.928 179.095 143.353 179.533 142.637 179.383V179.386C143.353 179.568 143.928 180.27 143.928 180.972C143.928 180.269 144.506 179.832 145.223 179.983V179.984Z" fill="#3C001D"/>
<path d="M144.958 173.507L142.96 173.046C142.702 172.987 142.467 173.075 142.348 173.276L137.797 181.025C137.665 181.251 137.851 181.599 138.141 181.667L140.44 182.198C140.701 182.259 140.937 182.167 141.054 181.962L142.276 179.825C142.442 179.534 142.44 179.145 142.269 178.779L141.39 176.895C141.15 176.382 141.483 175.911 142 176.031L145.924 176.943C146.441 177.062 146.772 177.688 146.532 178.088L145.543 179.743C145.44 179.915 145.439 180.149 145.538 180.369L146.865 183.305C146.982 183.563 147.22 183.765 147.479 183.824L149.778 184.355C150.067 184.421 150.254 184.158 150.122 183.872L145.571 174.02C145.453 173.764 145.217 173.565 144.96 173.506L144.958 173.507Z" fill="#3C001D"/>
<path d="M431.785 199.228C431.618 199.117 431.473 199.004 431.328 198.891C430.094 197.923 429.101 196.75 428.367 195.356C427.947 194.557 427.629 193.719 427.399 192.842C427.274 192.36 427.176 191.87 427.112 191.373C427.054 190.94 427.014 190.506 427.009 190.065C427.007 189.906 426.989 189.747 427.02 189.589C427.078 189.297 427.249 189.085 427.518 188.956C428.256 188.602 429.018 188.319 429.802 188.096C430.278 187.961 430.76 187.852 431.247 187.772C431.592 187.714 431.938 187.673 432.286 187.646C432.589 187.622 432.891 187.61 433.194 187.611C434.368 187.616 435.51 187.793 436.633 188.109C437.103 188.241 437.568 188.398 438.02 188.586C438.366 188.729 438.544 188.992 438.544 189.374C438.535 191.208 438.147 192.97 437.372 194.659C436.852 195.785 436.167 196.805 435.328 197.722C434.87 198.224 434.371 198.684 433.835 199.105C433.817 199.12 433.798 199.153 433.773 199.14C433.751 199.127 433.765 199.093 433.765 199.069C433.765 197.538 433.765 196.006 433.765 194.476C433.765 194.391 433.765 194.388 433.848 194.397C434.476 194.459 435.069 194.631 435.615 194.934C435.656 194.957 435.679 194.957 435.711 194.917C435.921 194.67 436.131 194.425 436.35 194.181C436.391 194.134 436.368 194.119 436.332 194.096C435.971 193.869 435.583 193.71 435.17 193.597C434.73 193.477 434.282 193.404 433.824 193.377C433.714 193.371 433.604 193.365 433.493 193.364C433.458 193.364 433.446 193.356 433.443 193.319C433.408 192.904 433.37 192.489 433.332 192.075C433.288 191.593 433.242 191.112 433.197 190.631C433.184 190.492 433.174 190.352 433.159 190.212C433.155 190.178 433.172 190.163 433.194 190.144C433.418 189.961 433.513 189.726 433.463 189.45C433.41 189.158 433.227 188.973 432.935 188.909C432.543 188.82 432.131 189.115 432.079 189.517C432.044 189.789 432.136 190.005 432.346 190.167C432.378 190.192 432.391 190.218 432.387 190.259C432.36 190.535 432.336 190.812 432.311 191.09C432.285 191.369 432.26 191.648 432.233 191.926C432.206 192.217 432.18 192.508 432.154 192.798C432.139 192.976 432.12 193.154 432.109 193.331C432.105 193.389 432.093 193.411 432.027 193.417C431.089 193.512 430.184 193.735 429.362 194.249C429.307 194.284 429.255 194.325 429.199 194.359C429.165 194.38 429.169 194.397 429.192 194.422C429.41 194.659 429.629 194.896 429.845 195.135C429.868 195.158 429.882 195.164 429.915 195.144C430.38 194.85 430.883 194.652 431.414 194.529C431.52 194.505 431.629 194.49 431.736 194.47C431.772 194.463 431.788 194.474 431.784 194.512C431.782 194.526 431.784 194.54 431.784 194.553C431.784 196.08 431.784 197.606 431.784 199.132C431.784 199.159 431.784 199.188 431.784 199.232L431.785 199.228Z" fill="#3C001D"/>
<path d="M281.334 199.228L279.258 196.248L278.235 194.653C278.036 194.631 277.833 194.621 277.629 194.627C275.227 194.7 273.299 196.822 273.338 199.344C273.38 201.898 275.368 203.905 277.784 203.83C279.827 203.767 281.52 202.232 281.961 200.218L281.334 199.228ZM279.231 201.514C278.245 201.548 277.258 201.582 276.271 201.613C275.805 201.628 275.53 201.35 275.519 200.856C275.507 200.34 275.499 199.824 275.489 199.307C275.479 198.778 275.467 198.249 275.46 197.722C275.453 197.263 275.721 196.961 276.156 196.946C277.159 196.909 278.164 196.875 279.168 196.844C279.6 196.831 279.883 197.116 279.893 197.574C279.916 198.619 279.935 199.664 279.954 200.71C279.962 201.208 279.702 201.498 279.232 201.516L279.231 201.514Z" fill="#3C001D"/>
<path d="M256.542 72.9044C255.59 72.6235 254.754 71.9631 254.259 71.1012C253.765 70.2394 253.617 69.1839 253.856 68.2192C254.004 67.6223 254.329 67.0267 254.879 66.7577C255.431 66.4864 256.223 66.6828 256.434 67.2596" stroke="#3C001D" stroke-width="0.926662" stroke-linecap="round" stroke-linejoin="round"/>
<path d="M254.969 68.143C255.062 68.095 255.172 68.0795 255.275 68.0978C255.581 68.1526 255.753 68.4718 255.871 68.7582C256.168 69.4817 256.395 70.2339 256.546 71.0012" stroke="#3C001D" stroke-width="0.926662" stroke-linecap="round" stroke-linejoin="round"/>
<path d="M256.627 72.9199C256.909 74.2897 256.902 75.5507 256.57 76.9095" stroke="#3C001D" stroke-width="0.926662" stroke-linecap="round" stroke-linejoin="round"/>
<path d="M263.275 63.9442C264.331 63.888 265.397 63.4619 266.07 62.6453C266.7 63.83 267.998 64.5809 269.334 64.6878C269.71 68.1105 269.975 71.6292 268.901 74.8993C268.71 75.483 268.479 76.0531 268.248 76.6231C267.695 77.9745 267.13 79.3219 266.554 80.6637" stroke="#3C001D" stroke-width="0.926662" stroke-linecap="round" stroke-linejoin="round"/>
<path d="M256.445 67.2765C256.545 67.3272 256.632 67.3752 256.746 67.3797C257.594 67.4135 258.403 66.9732 258.976 66.3384" stroke="#3C001D" stroke-width="0.926662" stroke-linecap="round" stroke-linejoin="round"/>
<path d="M255.477 76.3467C258.812 78.6267 262.584 79.9087 266.552 80.6623" stroke="#3C001D" stroke-width="0.926662" stroke-linecap="round" stroke-linejoin="round"/>
<path d="M249.312 74.532C245.827 72.2323 241.245 72.152 237.243 73.3372C233.241 74.5224 229.679 76.8344 226.183 79.1157C219.332 83.5853 212.482 88.0558 205.631 92.5254C203.783 93.7302 202.032 94.7021 200.196 95.9253C198.89 96.7944 197.578 97.717 196.66 98.9881C195.597 100.456 195.14 102.298 195.091 104.111C194.976 108.423 196.299 112.626 198.176 116.465" stroke="#3C001D" stroke-width="0.926662" stroke-linecap="round" stroke-linejoin="round"/>
<path d="M214.758 108.414C214.51 107.385 214.383 106.578 214.818 105.614C215.241 104.681 216.195 104.125 217.093 103.634C221.804 101.06 226.585 98.6113 231.425 96.2934C232.941 95.5681 234.53 94.8392 236.209 94.8657C237.948 94.894 238.558 97.222 239.048 98.8922C239.988 102.09 240.927 105.287 241.867 108.485C242.221 109.689 242.583 110.911 243.256 111.968C243.813 112.839 244.619 113.597 245.581 113.944" stroke="#3C001D" stroke-width="0.926662" stroke-linecap="round" stroke-linejoin="round"/>
<path d="M272.691 116.396C274.084 115.861 275.078 114.776 275.843 113.495C276.607 112.214 277.065 110.775 277.477 109.342C279.234 103.238 280.289 96.9328 280.616 90.5884" stroke="#3C001D" stroke-width="0.926662" stroke-linecap="round" stroke-linejoin="round"/>
<path d="M214.421 153.278C214.156 154.128 213.931 154.418 213.122 155.075C212.406 155.658 211.469 155.973 210.546 155.908C208.195 155.744 206.967 154.16 205.896 152.249C203.892 148.673 202.647 144.574 204.074 140.571C204.791 138.559 205.889 136.425 205.376 134.23C205.023 132.716 203.95 131.493 202.973 130.285C201.284 128.194 199.78 125.954 198.486 123.598C197.986 122.687 197.51 121.738 197.332 120.713C197.011 118.863 197.711 116.945 198.86 115.461C200.008 113.976 201.568 112.867 203.162 111.879C206.356 109.896 209.951 108.263 213.707 108.379C214.606 108.406 215.522 108.541 216.314 108.967C217.622 109.671 218.421 111.091 218.728 112.546C219.034 114.001 218.914 115.507 218.793 116.988C218.625 119.036 218.457 121.081 218.29 123.128C218.176 124.514 218.063 125.919 218.317 127.286C218.569 128.653 219.237 130.002 220.388 130.778C223.256 132.71 226.338 134.375 227.671 137.569C227.97 138.284 228.201 139.044 228.184 139.82C228.167 140.596 227.873 141.392 227.27 141.879" stroke="#3C001D" stroke-width="0.926662" stroke-linecap="round" stroke-linejoin="round"/>
<path d="M222.359 139.62C223.1 141.322 223.8 143.041 224.456 144.776" stroke="#3C001D" stroke-width="0.926662" stroke-linecap="round" stroke-linejoin="round"/>
<path d="M214.428 143.113C215.376 144.699 216.108 146.412 217.114 147.961C218.261 149.724 220.048 151.656 222.311 151.667C223.963 151.675 225.375 150.732 226.236 149.363C227.408 147.498 227.971 144.912 227.358 142.752C226.892 141.112 224.558 139.799 223.079 141.024" stroke="#3C001D" stroke-width="0.926662" stroke-linecap="round" stroke-linejoin="round"/>
<path d="M208.715 145.418C209.586 147.11 210.465 148.809 211.577 150.358C212.895 152.192 214.355 153.978 216.817 153.979C218.599 153.979 220.036 153.155 220.811 151.517" stroke="#3C001D" stroke-width="0.926662" stroke-linecap="round" stroke-linejoin="round"/>
<path d="M276.629 111.966C279.824 117.057 282.988 121.978 286.184 127.068C286.955 128.297 287.762 129.563 288.976 130.358C290.321 131.24 291.989 131.426 293.576 131.687C295.746 132.044 297.745 132.463 299.825 133.176" stroke="#3C001D" stroke-width="0.926662" stroke-linecap="round" stroke-linejoin="round"/>
<path d="M273.238 80.8103C275.688 81.1291 278.057 82.0449 280.099 83.4342C284.734 86.5902 286.794 91.9582 288.999 97.1174C291.438 102.828 293.879 108.539 296.319 114.252C296.607 114.927 296.904 115.616 297.392 116.164C298.435 117.337 299.901 117.582 301.451 117.819" stroke="#3C001D" stroke-width="0.926662" stroke-linecap="round" stroke-linejoin="round"/>
<path d="M275.105 134.627C276.187 131.217 276.544 127.894 275.892 124.647C275.635 123.369 275.091 122.483 275.237 121.187C275.339 120.287 275.749 119.377 275.494 118.506C275.194 117.485 274.107 116.939 273.113 116.561C266.819 114.169 259.969 113.784 253.244 113.488C250.357 113.361 247.587 113.41 244.795 114.202C244.186 114.374 243.58 114.615 243.111 115.039C242.101 115.95 242.427 117.255 242.562 118.446C242.738 120.017 241.569 121.369 240.72 122.702C238.634 125.976 238.257 130.086 238.696 133.944C239.196 138.356 240.691 142.652 243.038 146.42C263.933 179.966 289.438 199.163 297.687 237.634" stroke="#3C001D" stroke-width="0.926662" stroke-linecap="round" stroke-linejoin="round"/>
<path d="M260.852 171.711C253.357 192.122 237.924 206.23 222.199 218.04C217.082 221.883 211.46 225.198 205.305 226.94C201.328 228.066 197.191 228.469 193.07 228.821" stroke="#3C001D" stroke-width="0.926662" stroke-linecap="round" stroke-linejoin="round"/>
<path d="M191.766 214.583C210.256 210.437 219.326 191.749 226.551 176.028C232.245 163.639 237.462 150.777 239.237 137.163" stroke="#3C001D" stroke-width="0.926662" stroke-linecap="round" stroke-linejoin="round"/>
<path d="M309.313 113.842C308.818 113.314 308.241 112.898 307.537 112.793C306.593 112.65 305.663 113.119 304.895 113.689C303.073 115.043 301.786 117.014 300.884 119.099C298.949 123.568 298.669 128.71 299.978 133.402C300.444 135.073 301.359 136.916 303.057 137.26C303.652 137.381 304.268 137.294 304.868 137.207C306.107 137.027 307.116 136.874 308.355 136.694" stroke="#3C001D" stroke-width="0.926662" stroke-linecap="round" stroke-linejoin="round"/>
<path d="M217.104 85.0524C214.884 85.9216 211.684 86.6437 209.67 87.273C207.112 88.0714 204.544 88.8392 201.957 89.5361C196.799 90.9228 191.555 92.0345 186.235 92.5551C166.021 94.5314 144.311 87.8896 128.989 74.4517C128.828 74.3124 128.669 74.1713 128.511 74.0288C117.778 64.4297 107.768 48.6769 109.945 33.6422C110.533 29.5862 112.533 23.4563 117.719 26.5642C118.874 27.2569 119.788 28.284 120.656 29.3153C128.69 38.8733 134.624 50.0143 142.607 59.5681C149.074 67.3075 156.842 73.8337 165.807 78.491C180.985 86.376 200.554 90.8127 217.104 85.051V85.0524Z" stroke="#3C001D" stroke-width="0.926662" stroke-linecap="round" stroke-linejoin="round"/>
<path d="M188.822 92.3264C190.869 93.6318 193.262 94.3356 195.677 94.5795C198.091 94.8252 200.39 94.6767 202.784 94.2789" stroke="#3C001D" stroke-width="0.926662" stroke-linecap="round" stroke-linejoin="round"/>
<path d="M221.985 81.8045C219.032 82.201 216.005 81.6342 213.353 80.2795C207.748 77.4172 205.89 70.7654 206.346 64.8557C206.432 63.7326 206.604 62.6155 206.859 61.5193C208.024 56.4854 210.803 51.923 214.294 48.1153C215.587 46.7045 216.991 45.3713 217.998 43.7433C218.467 42.9828 218.853 42.0799 218.629 41.2151C218.03 38.9071 214.127 38.402 212.217 38.5304C209.285 38.7279 206.567 40.1556 204.13 41.7019C200.824 43.7982 197.746 46.2601 194.991 49.0436C192.308 51.7565 189.858 55.148 186.222 56.6477C181.907 58.4267 177.86 55.8816 174.82 52.8823C172.559 50.6533 170.616 48.0885 168.122 46.1246C165.768 44.2723 162.662 43.0534 159.895 44.8648C154.598 48.3367 157.877 55.3413 157.659 60.2917C157.631 60.9338 157.548 61.6011 157.192 62.1354C155.604 64.5269 151.427 63.3618 149.32 62.5575C146.472 61.4695 143.931 59.7373 141.373 58.1078" stroke="#3C001D" stroke-width="0.926662" stroke-linecap="round" stroke-linejoin="round"/>
<path d="M247.029 73.3683C248.968 71.5414 251.721 72.4809 253.516 74.01C255.598 75.7835 257 78.8071 256.753 81.5721C256.707 82.0942 256.528 82.6203 256.16 82.9939C255.792 83.368 255.214 83.5543 254.724 83.3707C254.401 83.2497 254.15 82.9898 253.942 82.7162C253.141 81.6653 252.927 80.4084 252.442 79.2158C251.71 77.409 250.782 75.5044 249.196 74.4435" stroke="#3C001D" stroke-width="0.926662" stroke-linecap="round" stroke-linejoin="round"/>
<path d="M249.426 72.4033C250.09 72.5065 250.653 72.9409 251.141 73.4036C252.599 74.792 253.645 76.5541 254.563 78.3472C254.775 78.7633 255.007 79.2063 255.417 79.4278C255.828 79.6494 256.465 79.4982 256.557 79.0396" stroke="#3C001D" stroke-width="0.926662" stroke-linecap="round" stroke-linejoin="round"/>
<path d="M266.832 80.0681C268.105 80.3092 269.115 81.2446 269.831 82.3252C270.547 83.4059 271.004 84.6336 271.58 85.7932C271.754 86.1417 271.942 86.4902 272.221 86.761C272.5 87.0319 272.886 87.2164 273.272 87.1684C273.704 87.1164 274.062 86.7793 274.244 86.3842C274.425 85.9891 274.456 85.542 274.45 85.1076C274.421 83.3383 273.795 81.5849 272.696 80.1992C271.597 78.8139 269.717 77.7136 268.002 77.2861" stroke="#3C001D" stroke-width="0.926662" stroke-linecap="round" stroke-linejoin="round"/>
<path d="M267.932 77.5007C268.663 77.746 269.313 78.2269 269.836 78.8015C270.454 79.4811 270.912 80.2895 271.334 81.1066C271.609 81.6396 271.884 82.1968 272.344 82.5823C272.563 82.7641 272.829 82.9052 273.112 82.9221C273.397 82.939 273.793 82.7047 273.938 82.4595" stroke="#3C001D" stroke-width="0.926662" stroke-linecap="round" stroke-linejoin="round"/>
<path d="M337.819 110.078C337.859 108.278 336.93 106.731 335.44 105.72C335.057 105.461 334.634 105.248 334.178 105.173C333.721 105.098 332.757 105.012 332.164 106.012" stroke="#3C001D" stroke-width="0.926662" stroke-linecap="round" stroke-linejoin="round"/>
<path d="M330.567 106.992C329.364 104.984 327.715 103.534 325.678 102.876C319.156 100.775 311.123 107.607 307.736 118.139C304.35 128.668 306.892 138.909 313.416 141.011C315.853 141.797 318.485 141.375 321.006 139.979C321.926 139.468 322.832 138.829 323.709 138.07C325.332 136.665 326.853 134.854 328.18 132.707" stroke="#3C001D" stroke-width="0.926662" stroke-linecap="round" stroke-linejoin="round"/>
<path d="M263.928 70.2151C265.095 70.8883 266.556 71.0235 267.826 70.5764" stroke="#3C001D" stroke-width="0.926662" stroke-linecap="round" stroke-linejoin="round"/>
<path d="M269.265 64.7047C268.38 64.8742 267.442 65.1057 266.445 66.1991C265.085 64.7993 263.627 64.211 262.066 63.7218C261.228 63.4579 259.19 63.0655 258.732 64.2265C258.703 64.3014 258.683 64.3804 258.67 64.4595C258.557 65.1647 258.719 65.8392 259.079 66.4472C259.808 67.6803 260.943 68.8637 262.409 69.1209C263.78 69.3606 265.166 68.7596 266.334 68.0754" stroke="#3C001D" stroke-width="0.926662" stroke-linecap="round" stroke-linejoin="round"/>
<path d="M266.35 68.0735C267.16 68.7887 268.386 69.2473 269.591 68.8326" stroke="#3C001D" stroke-width="0.926662" stroke-linecap="round" stroke-linejoin="round"/>
<path d="M264.878 66.9279C264.878 66.9279 263.152 64.489 260.65 65.4865C260.65 65.4865 261.923 68.357 264.878 66.9279Z" stroke="#3C001D" stroke-width="0.926662" stroke-linecap="round" stroke-linejoin="round"/>
<path d="M267.48 67.2725C267.48 67.2725 268.743 65.2651 270.769 65.9466C270.769 65.9466 269.885 68.2768 267.48 67.2725Z" stroke="#3C001D" stroke-width="0.926662" stroke-linecap="round" stroke-linejoin="round"/>
<path d="M198.842 228.199C196.563 225.716 195.821 221.969 196.477 218.62C196.982 216.038 198.044 213.891 199.606 211.755" stroke="#3C001D" stroke-width="0.926662" stroke-linecap="round" stroke-linejoin="round"/>
<path d="M192.727 237.843C191.916 236.931 190.991 236.383 189.821 236.033C189.317 235.882 188.82 235.634 188.301 235.586" stroke="#3C001D" stroke-width="0.926662" stroke-linecap="round" stroke-linejoin="round"/>
<path d="M188.301 235.586C188.414 234.334 188.601 233.49 188.975 232.29C189.048 232.056 189.13 231.816 189.296 231.637C189.63 231.276 190.182 231.263 190.67 231.2C191.26 231.124 191.837 230.935 192.359 230.647C192.873 230.363 193.383 229.864 193.286 229.285C193.224 228.917 192.93 228.638 192.654 228.388C191.642 227.473 190.63 226.557 189.619 225.641C189.441 225.48 189.252 225.314 189.018 225.265C188.643 225.186 188.287 225.425 187.948 225.603C187.61 225.781 187.32 225.864 187.007 225.643C186.095 224.998 185.59 223.885 185.486 222.772C185.384 221.659 185.644 220.541 186.018 219.489C186.482 218.179 187.141 216.912 188.141 215.948C189.142 214.984 190.312 214.471 191.696 214.588C191.382 214.561 190.753 213.46 190.58 213.209C190.072 212.469 190.27 212.5 190.58 211.755C191.008 210.724 190.785 209.453 190.126 208.569C189.267 207.42 187.809 206.841 186.378 206.749C183.302 206.553 180.329 208.445 178.705 211.069C177.083 213.693 176.671 216.925 176.987 219.995C177.071 220.811 177.211 221.69 177.217 222.538" stroke="#3C001D" stroke-width="0.926662" stroke-linecap="round" stroke-linejoin="round"/>
<path d="M190.187 212.504C189.478 212.048 189.453 211.089 188.796 210.562C188.203 210.085 187.353 210.142 186.599 210.251C184.76 210.514 182.668 211.138 181.971 212.863C181.479 214.077 181.855 215.443 182.072 216.735C182.255 217.828 182.322 218.942 182.265 220.047C182.251 220.34 182.222 220.647 182.05 220.883C181.878 221.118 181.513 221.237 181.287 221.052C181.176 220.962 181.123 220.821 181.072 220.685C180.718 219.733 180.366 218.78 180.012 217.83C180.205 219.644 180.395 221.501 179.98 223.278C179.825 223.94 179.588 224.575 179.314 225.197" stroke="#3C001D" stroke-width="0.926662" stroke-linecap="round" stroke-linejoin="round"/>
<path d="M185.103 229.024C185.001 229.33 184.912 229.642 184.83 229.954C184.706 230.431 184.632 230.731 184.541 231.217" stroke="#3C001D" stroke-width="0.926662" stroke-linecap="round" stroke-linejoin="round"/>
<path d="M187.365 225.781C186.869 226.111 186.427 226.532 186.1 227.001" stroke="#3C001D" stroke-width="0.926662" stroke-linecap="round" stroke-linejoin="round"/>
<path d="M190.967 231.099C189.607 229.446 187.903 228.093 186.051 227.019C185.754 226.847 185.441 226.678 185.098 226.647C184.756 226.616 184.376 226.756 184.223 227.065C184.071 227.374 184.185 227.749 184.36 228.045C184.77 228.739 185.459 229.186 186.084 229.666C187.105 230.449 188.067 231.107 189.05 231.915" stroke="#3C001D" stroke-width="0.926662" stroke-linecap="round" stroke-linejoin="round"/>
<path d="M187.43 234.611C187.792 234.793 187.95 234.816 188.299 234.993" stroke="#3C001D" stroke-width="0.926662" stroke-linecap="round" stroke-linejoin="round"/>
<path d="M188.674 233.299C187.687 232.646 186.733 232.153 185.63 231.717C185.357 231.609 185.075 231.521 184.789 231.445" stroke="#3C001D" stroke-width="0.926662" stroke-linecap="round" stroke-linejoin="round"/>
<path d="M270.988 103.225C269.243 102.874 268.366 101.066 268.453 99.4097C268.543 97.7029 268.547 95.9901 268.468 94.2815C269.971 94.4875 270.722 94.5907 272.227 94.7967C272.186 93.585 272.149 92.9752 272.041 91.7549C270.523 91.5589 269.764 91.4603 268.247 91.2639C268.076 89.5781 267.829 87.9005 267.506 86.2375C266.468 86.8368 265.948 87.1346 264.898 87.7228C265.112 88.9912 265.201 89.6233 265.341 90.8857C263.506 90.6473 261.671 90.4075 259.838 90.1663C255.58 89.6119 256.309 95.316 258.435 97.2032C259.602 98.2939 260.17 98.8401 261.276 99.9331C261.885 100.589 261.523 101.709 260.625 101.565C259.319 101.357 258.014 101.147 256.707 100.937C256.619 102.083 256.557 102.652 256.4 103.781C257.948 104.041 258.723 104.172 260.272 104.434C264.109 104.973 265.473 99.7613 262.683 97.5873C261.713 96.6601 260.73 95.7462 259.733 94.8474C259.057 94.1888 259.215 93.0063 260.139 93.1333C261.956 93.3858 263.774 93.6357 265.591 93.8869C265.685 95.5978 265.697 97.3119 265.623 99.0246C265.452 102.291 266.976 105.593 270.481 106.145C270.817 106.201 270.987 106.23 271.323 106.285C271.552 105.123 271.649 104.536 271.807 103.354C271.479 103.302 271.315 103.277 270.987 103.225H270.988Z" fill="#3C001D"/>
<path d="M272.351 59.633C271.613 58.6455 270.566 57.8751 269.376 57.5549C268.187 57.2347 266.775 57.3701 265.733 58.0303C265.147 57.0188 264.07 56.3416 262.925 56.1117C261.779 55.8831 260.575 56.0736 259.493 56.5123C257.968 57.1317 256.604 58.3802 256.308 59.9998C255.378 59.8813 254.419 60.1352 253.616 60.6191C252.813 61.1046 252.158 61.8098 251.647 62.5972C250.867 63.8021 250.407 65.2394 250.5 66.6713C250.595 68.1031 251.327 69.5309 252.486 70.3763C251.86 70.9275 251.528 71.7953 251.621 72.6234L252.337 73.1354L254.039 74.4179L255.476 76.3407L256.414 76.9504L256.663 76.7161L256.789 74.6522L256.414 72.9326L254.696 71.7912L253.743 69.4139L254.274 67.0522L255.727 66.505L256.415 67.1143L256.931 67.3486L258.165 67.0508L258.925 66.141C258.678 65.6135 258.577 65.0448 258.673 64.452C258.685 64.373 258.705 64.2944 258.735 64.2182C258.957 63.6536 259.555 63.4563 260.206 63.4335L260.478 63.4842L260.941 63.4705C261.381 63.5253 261.791 63.6253 262.069 63.713C262.161 63.7413 262.251 63.771 262.343 63.8003C262.619 63.8386 262.85 63.8697 262.901 63.8752C263.042 63.8907 264.587 63.6564 264.587 63.6564L265.837 62.8749L266.056 62.6096L266.572 63.407L268.009 64.3917L269.18 64.7046L269.203 64.7105C269.224 64.7059 269.247 64.7018 269.268 64.6977L269.247 64.7215L269.367 64.7512L269.523 66.6585L269.664 68.2063L269.707 69.7793C270.173 69.4957 270.539 69.054 270.735 68.5448C270.929 68.0355 270.953 67.481 270.797 66.959C272.171 66.4835 273.176 65.1677 273.427 63.734C273.678 62.3008 273.225 60.7913 272.354 59.6259L272.351 59.633Z" fill="#3C001D"/>
<path d="M333.02 107.389C331.278 104.506 328.089 103.046 324.959 102.675" stroke="#3C001D" stroke-width="0.926662" stroke-linecap="round" stroke-linejoin="round"/>
<path d="M330.378 134.714C326.427 140.431 321.044 143.361 316.373 141.856L313.162 140.925" stroke="#3C001D" stroke-width="0.926662" stroke-linecap="round" stroke-linejoin="round"/>
<path d="M259.797 123.721C275.14 132.886 288.124 145.663 298.916 159.917C308.474 172.542 317.432 185.987 323.872 200.367" stroke="#3C001D" stroke-width="0.926662" stroke-linecap="round" stroke-linejoin="round"/>
<path d="M296.948 234.727C295.596 234.246 294.194 234.948 293.265 236.042C292.336 237.135 291.888 238.546 291.461 239.917C290.138 244.171 288.443 248.918 287.119 253.171" stroke="#3C001D" stroke-width="0.926662" stroke-linecap="round" stroke-linejoin="round"/>
<path d="M311.148 223.424C310.617 221.966 309.908 220.561 309.161 219.198C308.488 217.967 307.772 216.738 307.391 215.386C306.316 211.565 308.197 207.352 311.234 204.799C314.271 202.245 318.255 201.104 322.183 200.563C324.754 200.209 327.39 200.086 329.93 200.627C332.469 201.167 334.918 202.419 336.545 204.441C338.684 207.101 339.143 210.712 338.724 214.149" stroke="#3C001D" stroke-width="0.926662" stroke-linecap="round" stroke-linejoin="round"/>
<path d="M295.213 236.943C297.385 238.152 300.057 237.863 302.499 237.4C305.301 236.87 308.253 236.047 310.121 233.889C311.517 232.275 312.099 230.099 312.063 227.947" stroke="#3C001D" stroke-width="0.926662" stroke-linecap="round" stroke-linejoin="round"/>
<path d="M287.12 253.173C291.043 255.447 295.237 256.29 300.037 255.032C303.816 254.042 307.11 251.373 311.001 251.028C311.933 250.947 312.925 251.009 313.714 251.513C315.467 252.634 315.34 255.357 314.204 257.099C313.069 258.842 311.245 260.008 309.864 261.564C308.483 263.12 307.567 265.49 308.667 267.256C309.214 268.134 310.164 268.688 311.146 269.009C316.063 270.612 321.744 267.086 326.454 269.223C327.872 269.867 329.044 270.975 330.478 271.583C331.911 272.191 333.87 272.103 334.679 270.772C335.51 269.405 334.674 267.676 333.946 266.251C333.217 264.826 332.675 262.875 333.86 261.799C334.398 261.312 335.165 261.163 335.891 261.17C338.262 261.193 340.361 262.616 342.316 263.961C347.271 267.369 352.956 270.762 358.895 269.827C364.567 268.934 369.07 265.417 372.59 260.875C374.862 257.947 376.722 254.685 379.271 251.973C382.1 248.963 385.912 246.898 389.972 246.153C395.169 245.2 400.503 244.338 402.107 251.46C403.743 258.724 399.09 265.877 395.114 270.211C389.517 276.306 381.944 280.324 374.049 282.565C366.419 284.73 358.266 285.36 350.411 284.214C340.818 282.814 332.262 277.784 322.691 276.379C317.058 275.551 311.331 275.735 305.682 276.363C299.191 277.085 292.587 278.328 286.171 276.46C283.414 275.659 281.545 273.718 280.455 271.06C278.957 267.41 279.731 263.368 280.989 259.774C281.672 257.819 282.509 255.924 283.329 254.024C283.993 252.487 284.46 250.677 285.793 249.558C286.587 248.892 287.59 248.691 288.344 249.399" stroke="#3C001D" stroke-width="0.926662" stroke-linecap="round" stroke-linejoin="round"/>
<path d="M338.248 222.739C338.132 223.528 338.087 224.328 338.112 225.123C338.122 225.438 338.163 225.778 338.264 226.083" stroke="#3C001D" stroke-width="0.926662" stroke-linecap="round" stroke-linejoin="round"/>
<path d="M350.67 229.666C351.776 230.121 353.099 229.964 354.213 229.483C355.487 228.933 356.558 228.014 357.651 227.158C359.747 225.516 361.991 224.06 364.345 222.816C366.641 221.601 369.095 220.574 371.684 220.365C375.629 220.047 379.548 221.693 382.632 224.177C385.715 226.661 388.063 229.934 390.174 233.286C392.671 237.251 394.895 241.389 396.825 245.659" stroke="#3C001D" stroke-width="0.926662" stroke-linecap="round" stroke-linejoin="round"/>
<path d="M330.22 213.567C329.564 213.656 328.917 213.762 328.286 213.88C324.578 214.568 320.908 215.652 317.56 217.412C314.438 219.055 310.671 221.56 310.833 225.589C310.86 226.256 311.023 226.946 311.462 227.449C312.987 229.197 315.709 227.711 317.32 226.92C323.014 224.125 329.192 222.361 335.579 222.806C337.224 222.92 339.288 222.882 340.616 221.741C343.244 219.482 342.091 215.577 339.2 214.338C336.413 213.143 333.228 213.157 330.218 213.565L330.22 213.567Z" stroke="#3C001D" stroke-width="0.926662" stroke-linecap="round" stroke-linejoin="round"/>
<path d="M324.115 232.574C322.844 233.67 321.781 234.927 321.273 236.328C320.733 237.815 320.977 239.687 322.217 240.666C323.088 241.353 324.296 241.491 325.383 241.274C326.472 241.057 327.468 240.523 328.431 239.973C330.901 238.561 333.278 236.99 335.78 235.636C338.091 234.387 340.505 233.326 342.989 232.468C344.253 232.031 345.535 231.647 346.832 231.315C347.959 231.028 349.392 230.911 350.306 230.116C350.844 229.648 350.785 229.024 350.325 228.519C348.83 226.874 346.045 226.21 343.934 225.949C341.586 225.66 339.185 225.84 336.878 226.341C334.528 226.852 332.25 227.685 330.098 228.756C329.781 228.914 329.466 229.078 329.155 229.246C327.389 230.202 325.642 231.255 324.115 232.571V232.574Z" stroke="#3C001D" stroke-width="0.926662" stroke-linecap="round" stroke-linejoin="round"/>
<path d="M329.299 239.47C330.006 239.592 330.718 239.687 331.431 239.753C340.058 240.548 351.504 237.561 355.285 228.917" stroke="#3C001D" stroke-width="0.926662" stroke-linecap="round" stroke-linejoin="round"/>
<path d="M313.867 228.227C315.609 231.355 317.556 234.35 320.66 236.257C320.836 236.366 321.014 236.472 321.193 236.575" stroke="#3C001D" stroke-width="0.926662" stroke-linecap="round" stroke-linejoin="round"/>
<path d="M289.869 214.493C291.401 207.799 295.552 201.84 301.317 198.097C307.068 194.363 314.302 193.055 321.018 194.369" stroke="#3C001D" stroke-width="0.926662" stroke-linecap="round" stroke-linejoin="round"/>
<path d="M332.206 135.196C333.744 135.222 335.197 134.192 335.875 132.823C336.553 131.453 336.522 129.814 336.012 128.383C335.503 126.953 334.553 125.713 333.465 124.646C331.81 123.024 329.777 121.741 327.515 121.166C326.671 120.951 325.777 120.835 324.927 121.037C324.108 121.231 323.372 121.712 322.791 122.318C322.275 122.856 321.866 123.502 321.659 124.212C321.132 126.023 322.006 127.995 323.37 129.295C324.148 130.035 325.073 130.603 326.034 131.085C326.803 131.471 327.584 131.673 328.098 132.377C329.114 133.77 330.297 135.166 332.206 135.197V135.196Z" stroke="#3C001D" stroke-width="0.926662" stroke-linecap="round" stroke-linejoin="round"/>
<path d="M335.88 127.921C339.663 126.883 339.891 124.318 339.505 122.375C339.118 120.431 337.828 118.776 336.33 117.481C334.667 116.043 332.829 114.676 330.729 114.03C330.061 113.824 329.165 113.821 328.47 113.886C326.87 114.034 325.612 115.594 325.426 117.192C325.251 118.692 325.775 119.77 326.72 120.931" stroke="#3C001D" stroke-width="0.926662" stroke-linecap="round" stroke-linejoin="round"/>
<path d="M338.442 119.837C339.642 119.12 340.557 118.253 340.781 116.871C340.895 116.166 340.79 115.442 340.603 114.754C339.697 111.423 336.852 108.855 333.627 107.631C332.597 107.24 331.497 106.965 330.401 107.069C328.194 107.278 326.621 109.276 327.381 111.468C327.692 112.367 328.476 113.11 329.162 113.738" stroke="#3C001D" stroke-width="0.926662" stroke-linecap="round" stroke-linejoin="round"/>
<path d="M326.828 103.03C326.828 103.03 331.304 104.634 332.163 106.013L333.021 107.391L330.562 107.058C330.562 107.058 330.026 105.814 328.946 104.9C327.867 103.985 326.828 103.032 326.828 103.032V103.03Z" fill="#3C001D"/>
<path d="M328.346 132.819L324.977 136.868L322.871 138.917L319.638 140.826L315.998 141.608L318.7 142.356L322.543 141.503L326.505 139.056L329.968 135.293L330.38 134.714L328.346 132.819Z" fill="#3C001D"/>
<path d="M378.341 253.02C377.577 250.151 376.39 247.394 374.825 244.872C373.143 242.163 370.956 239.509 370.806 236.323C370.647 232.913 372.994 229.769 375.939 228.047C378.436 226.586 381.307 225.962 384.185 225.551" stroke="#3C001D" stroke-width="0.926662" stroke-linecap="round" stroke-linejoin="round"/>
<path d="M273.895 226.112L282.942 236.335L295.213 233.03L286.702 224.538L273.895 226.112Z" fill="#3C001D"/>
<path d="M388.805 231.225L402.462 217.597L427.376 220.661L409.778 240.545L391.621 235.654" fill="#3C001D"/>
<path d="M149.964 246.445L190.28 237.942L172.994 217.834L126.66 219.626L149.964 246.445Z" fill="#3C001D"/>
<path d="M202.321 248.997L201.727 271.102L228.289 259.775L229.494 239.876L202.321 248.997Z" fill="#3C001D"/>
<path d="M85.9418 254.756H92.0204C96.0085 254.756 99.2415 251.519 99.2415 247.527V241.442C99.2415 237.45 96.0085 234.213 92.0204 234.213H85.9418C81.9537 234.213 78.7207 237.45 78.7207 241.442V247.527C78.7207 251.519 81.9537 254.756 85.9418 254.756Z" stroke="#3C001D" stroke-width="0.926662" stroke-miterlimit="10"/>
<path d="M88.9824 264.87V250.243L92.2912 246.878" stroke="#3C001D" stroke-width="0.926662" stroke-miterlimit="10"/>
<path d="M85.7715 244.989L88.9817 250.574" stroke="#3C001D" stroke-width="0.926662" stroke-miterlimit="10"/>
<path d="M192.94 270.37L201.725 271.102L228.287 259.775L229.492 239.876L190.138 237.801L172.992 217.834L126.658 219.626L112.746 236.66L105.523 245.504L106.498 263.162L192.94 270.37Z" stroke="#3C001D" stroke-width="0.926662" stroke-miterlimit="10"/>
<path d="M229.492 239.876L202.32 248.997L149.963 246.445V266.787" stroke="#3C001D" stroke-width="0.926662" stroke-miterlimit="10"/>
<path d="M155.344 267.235V252.106L195.719 254.375L195.263 270.517" stroke="#3C001D" stroke-width="0.926662" stroke-miterlimit="10"/>
<path d="M190.137 237.801L149.962 246.445L126.658 219.626" stroke="#3C001D" stroke-width="0.926662" stroke-miterlimit="10"/>
<path d="M202.322 248.997L201.727 271.103" stroke="#3C001D" stroke-width="0.926662" stroke-miterlimit="10"/>
<path d="M273.893 226.112L282.999 236.319L295.211 233.029" stroke="#3C001D" stroke-width="0.926662" stroke-miterlimit="10"/>
</g>
</g>
<defs>
<clipPath id="clip0_1348_857">
<rect width="500" height="300" fill="white"/>
</clipPath>
</defs>
</svg>
